<svg version="1.1" id="Layer_1" xmlns="http://www.w3.org/2000/svg" xmlns:xlink="http://www.w3.org/1999/xlink" x="0px" y="0px"
	 width="100%" viewBox="0 0 512 512" enable-background="new 0 0 512 512" xml:space="preserve">
<path fill="#000000" opacity="1.000000" stroke="none" 
	d="
M210.554733,18.090244 
	C251.995316,26.068956 282.612518,58.448555 288.464966,99.937683 
	C290.590576,115.006454 288.867950,129.804367 285.976013,144.547485 
	C285.549927,146.719711 285.440369,148.259552 287.400452,149.769699 
	C298.433044,158.269684 299.302765,169.590424 295.544006,181.747528 
	C291.154785,195.943878 281.479736,204.913696 266.950348,208.210464 
	C263.015900,209.103195 260.661835,210.673813 259.109802,214.609558 
	C255.898346,222.753311 250.496643,229.580444 244.558929,235.967087 
	C241.864288,238.865479 239.919830,251.912003 241.628342,255.365097 
	C241.840561,255.793991 242.167267,256.285919 242.570663,256.482788 
	C249.844086,260.032440 254.053345,267.002502 259.995941,272.026245 
	C265.075531,276.320435 265.982819,281.125519 263.965240,287.602966 
	C247.731415,339.721008 231.797623,391.932495 215.778870,444.117493 
	C215.687180,444.416138 215.690536,444.743958 215.478104,446.370605 
	C221.184845,439.238007 226.233978,433.019287 231.183899,426.722595 
	C243.848541,410.612335 256.404266,394.415741 269.173767,378.389282 
	C271.191010,375.857544 271.542175,373.644867 270.728729,370.656067 
	C268.807190,363.595612 267.393982,356.393127 265.362946,349.367279 
	C263.924500,344.391357 265.298248,340.662476 268.819794,337.205231 
	C274.288513,331.836395 279.559082,326.265930 285.018616,320.887421 
	C286.978180,318.956940 287.641479,317.120422 286.981628,314.259644 
	C285.113983,306.162811 283.675110,297.967102 282.064453,289.810913 
	C279.936096,279.033264 284.853943,274.455322 295.312683,277.393738 
	C316.401733,283.318726 333.526367,295.106842 347.055786,312.240326 
	C349.301910,315.084778 350.984680,318.065704 349.294678,321.859131 
	C346.407623,328.339447 339.150330,329.282013 334.395538,323.402252 
	C326.850739,314.072571 317.971313,306.425873 307.529755,300.569855 
	C305.819214,299.610565 304.008362,298.830292 301.612244,297.658356 
	C301.775543,304.467926 303.478882,310.329346 304.777924,316.184998 
	C305.957855,321.503998 304.799225,325.527252 300.845032,329.202423 
	C295.843719,333.850800 291.284760,338.978577 286.237701,343.573029 
	C283.261200,346.282623 282.509460,349.019073 283.587982,352.826294 
	C285.399933,359.222565 286.616669,365.790802 288.515167,372.158051 
	C289.891602,376.774536 289.085419,380.505951 286.140137,384.232697 
	C265.688080,410.111206 245.318375,436.054871 224.939957,461.991547 
	C220.435562,467.724518 216.002075,473.513245 211.531189,479.282440 
	C213.595871,481.355408 215.704742,480.621674 217.580322,480.624451 
	C251.576065,480.674744 285.571869,480.646332 319.567688,480.677490 
	C326.206146,480.683594 329.455048,483.634521 329.324707,489.276978 
	C329.222717,493.694519 326.404266,496.808655 321.992371,497.252106 
	C320.505676,497.401550 318.995422,497.335754 317.495911,497.335815 
	C221.341125,497.340363 125.186340,497.343964 29.031553,497.339508 
	C18.904510,497.339050 16.657547,495.107941 16.656340,485.108307 
	C16.651930,448.612823 16.627081,412.117279 16.665913,375.621826 
	C16.714882,329.597534 48.405365,288.383453 92.898979,276.395233 
	C102.558830,273.792511 107.550148,278.463898 105.382233,288.191376 
	C103.465881,296.790070 101.520821,305.385925 99.351532,313.922821 
	C98.516983,317.207001 99.172646,319.519379 101.657982,321.856689 
	C106.996567,326.877380 112.008690,332.243317 117.274216,337.344269 
	C120.847038,340.805450 122.051987,344.587494 120.628487,349.531250 
	C118.604561,356.560272 117.214401,363.770111 115.268913,370.824188 
	C114.478439,373.690338 114.891724,375.822784 116.728027,378.146912 
	C134.474503,400.608002 152.133011,423.138641 170.552368,445.356384 
	C169.318756,441.206207 168.119080,437.045593 166.846329,432.907440 
	C151.873367,384.226135 136.946823,335.530334 121.832710,286.892853 
	C120.026871,281.081635 120.778923,276.565277 125.433205,272.570862 
	C131.472000,267.388275 135.938675,260.471008 143.099426,256.506989 
	C143.516510,256.276123 143.911240,255.901901 144.167038,255.499466 
	C145.778168,252.964600 144.485748,239.017761 142.347473,236.823929 
	C135.533936,229.833374 129.825577,222.081146 126.274055,212.940689 
	C125.121147,209.973450 122.944763,209.124420 120.259811,208.469055 
	C103.212837,204.308029 92.739594,193.761444 89.219589,176.444794 
	C85.603958,158.657715 97.192482,144.383728 115.343643,144.758759 
	C119.817093,144.851166 122.441078,143.795059 124.831383,139.661224 
	C129.120941,132.242813 136.140472,128.643738 144.848099,128.655716 
	C154.680206,128.669250 164.512497,128.690643 174.344406,128.644455 
	C189.798233,128.571884 199.013000,120.284019 200.652985,105.055687 
	C201.249893,99.512955 204.254868,96.575577 209.219513,96.681839 
	C213.917877,96.782394 216.845718,99.776962 217.346146,104.993645 
	C218.720993,119.325569 227.670395,128.082092 241.560745,128.648483 
	C250.989792,129.032944 258.072266,133.199768 262.603699,141.557571 
	C263.381927,142.992935 263.923676,144.695862 266.095093,144.603317 
	C268.298096,144.509445 268.794312,142.844849 269.163147,141.225906 
	C275.639984,112.795677 273.626099,85.861732 254.270447,62.408901 
	C240.743805,46.018970 223.199509,36.805431 202.018143,34.169014 
	C160.795822,29.038120 121.949913,57.622574 114.704346,99.529922 
	C113.547493,106.221024 112.764587,113.011635 113.707573,119.902084 
	C114.533234,125.935249 111.570656,129.827499 106.383247,130.307114 
	C100.617584,130.840179 97.196014,127.713646 96.722626,121.479507 
	C93.191223,74.974495 121.794662,33.300827 166.155533,20.303902 
	C180.635803,16.061447 195.311676,15.615330 210.554733,18.090244 
M108.841072,395.631622 
	C105.780907,391.680206 102.785515,387.676300 99.640984,383.793213 
	C96.912224,380.423492 96.132156,376.906982 97.360313,372.626740 
	C99.331535,365.756927 100.816032,358.748932 102.626633,351.830841 
	C103.418091,348.806763 102.900764,346.545319 100.472084,344.292877 
	C95.222412,339.424164 90.375748,334.123352 85.185310,329.187469 
	C81.315849,325.507812 80.053513,321.575775 81.362175,316.174957 
	C82.807541,310.210022 84.934151,304.284821 85.100952,297.550110 
	C83.344566,298.257843 82.058647,298.618195 80.928123,299.254578 
	C51.292255,315.938049 34.634926,341.237701 33.582970,375.221344 
	C32.547195,408.682373 33.416542,442.200714 33.270817,475.693115 
	C33.252892,479.812653 34.778419,480.797211 38.559803,480.716736 
	C48.053520,480.514709 57.560112,480.457764 67.049950,480.736908 
	C71.472885,480.867035 72.798988,479.344421 72.741272,474.992249 
	C72.529167,458.998413 72.654655,443.000031 72.663879,427.003357 
	C72.665024,425.013214 72.532059,423.013641 73.539261,421.146423 
	C75.680519,417.176788 79.156906,415.939240 83.249306,416.902191 
	C87.577873,417.920654 89.343498,421.170380 89.342377,425.492249 
	C89.338104,441.988800 89.471222,458.486938 89.264725,474.980865 
	C89.211136,479.261536 90.343842,480.780670 94.855614,480.744720 
	C119.848839,480.545715 144.844482,480.659485 169.839249,480.623352 
	C171.250183,480.621338 172.857666,481.168427 174.555984,479.210022 
	C152.846268,451.586975 131.071671,423.881378 108.841072,395.631622 
M248.657959,162.536713 
	C248.653854,159.870163 248.723083,157.201050 248.630661,154.537567 
	C248.425964,148.638199 245.522476,145.714478 239.704941,145.329742 
	C237.553986,145.187500 235.393265,145.013077 233.270569,144.654556 
	C223.513855,143.006638 215.796463,137.728806 209.226059,130.423111 
	C208.370956,131.082016 207.798889,131.409378 207.370026,131.870056 
	C198.561707,141.331970 187.746414,145.753387 174.788971,145.386551 
	C165.463501,145.122559 156.123901,145.280197 146.791626,145.363617 
	C141.235916,145.413284 137.491806,148.130463 137.510941,153.047165 
	C137.567200,167.508759 135.868607,182.088837 138.677170,196.409958 
	C143.577209,221.395828 165.846420,240.153564 191.732513,240.507629 
	C217.245071,240.856552 238.908340,225.387772 246.307434,200.274704 
	C249.858231,188.223068 248.386108,175.809052 248.657959,162.536713 
M178.664413,281.799500 
	C182.375366,284.892212 186.246429,287.816132 189.744003,291.133789 
	C192.303040,293.561188 194.108856,293.057770 196.523636,290.981934 
	C203.849548,284.684357 211.342636,278.581268 218.767792,272.399017 
	C224.977890,267.228485 226.701752,259.764832 223.346344,251.157990 
	C213.569458,254.757904 203.581757,257.443634 192.942947,257.442139 
	C182.316452,257.440643 172.356949,254.643753 162.531540,251.211655 
	C159.431061,260.140015 161.088806,267.042572 167.372330,272.385956 
	C170.925079,275.407104 174.533966,278.362305 178.664413,281.799500 
M181.808289,423.663849 
	C185.329361,435.106628 188.850433,446.549408 192.371506,457.992188 
	C192.809845,457.927826 193.248169,457.863464 193.686508,457.799103 
	C197.317078,445.891663 201.030823,434.008301 204.488678,422.050934 
	C205.008286,420.254120 204.493500,418.085327 204.181534,416.132660 
	C202.033371,402.686371 199.848938,389.245575 197.599045,375.815918 
	C196.404282,368.684387 195.055191,361.578644 193.682434,353.942169 
	C191.619400,355.826294 191.547028,357.654572 191.256409,359.401978 
	C188.939468,373.332886 186.524353,387.248322 184.336334,401.199432 
	C183.208542,408.390381 180.954498,415.451172 181.808289,423.663849 
M156.115860,285.403046 
	C152.671204,282.562469 149.226547,279.721924 145.863113,276.948334 
	C138.627518,282.020996 138.390808,282.594910 140.684357,290.166473 
	C143.572159,299.699921 146.473969,309.229401 149.446365,318.736633 
	C149.961853,320.385376 150.074036,322.414520 152.618210,323.331207 
	C161.038635,317.297089 169.629303,311.140961 178.941727,304.467621 
	C171.105392,297.925629 163.882004,291.895325 156.115860,285.403046 
M232.010284,283.531464 
	C223.901138,290.318298 215.792007,297.105164 207.014679,304.451202 
	C215.091705,310.221405 222.452255,315.536499 229.876297,320.761383 
	C234.058456,323.704681 234.967163,323.440826 236.479431,318.666901 
	C239.786728,308.226440 242.814346,297.695312 246.256607,287.300659 
	C247.715164,282.896271 245.051849,280.846405 242.396225,278.559967 
	C239.514908,276.079224 237.933060,279.024841 236.011063,280.224182 
	C234.755737,281.007507 233.706299,282.120758 232.010284,283.531464 
M173.738800,360.521606 
	C174.330994,357.423035 174.968002,354.332184 175.503418,351.223816 
	C176.097610,347.774078 170.718002,336.561951 167.844391,335.147827 
	C167.554581,335.005219 167.234314,334.869080 166.918716,334.842621 
	C163.022354,334.515961 156.692810,341.938507 157.819809,345.697113 
	C160.828506,355.731384 163.959763,365.728943 167.060364,375.735535 
	C167.666855,377.692902 167.920883,379.826782 169.989517,382.204559 
	C171.314957,374.712555 172.493561,368.050507 173.738800,360.521606 
M228.361267,341.398712 
	C226.440292,338.766388 223.509232,337.384735 220.995773,335.490570 
	C220.210876,334.899078 219.314636,334.503876 218.227066,335.060394 
	C215.605972,336.401642 209.950928,347.526764 210.476562,350.672760 
	C211.626205,357.553619 212.877975,364.417328 214.065887,371.291870 
	C214.606583,374.420837 214.489410,377.730530 216.565536,380.925568 
	C219.322128,376.849487 219.946075,372.497681 221.129532,368.421082 
	C223.672668,359.660919 227.345062,351.215698 228.361267,341.398712 
M275.856262,183.292786 
	C276.630646,182.015884 277.447754,180.762634 278.170746,179.457260 
	C279.737152,176.629135 280.182373,173.443741 280.499359,170.339874 
	C280.938477,166.039597 277.351898,162.080521 272.713806,161.490631 
	C269.537109,161.086609 265.881683,161.731522 265.650482,165.303253 
	C265.120239,173.495331 265.482605,181.745178 265.482605,190.342941 
	C270.251648,189.424744 272.878387,186.701294 275.856262,183.292786 
M116.035454,161.481644 
	C109.169716,161.654968 105.034325,165.056183 105.556114,170.635773 
	C106.021233,175.609238 107.223564,180.496902 110.860336,184.304886 
	C113.428970,186.994446 115.984093,189.790894 120.623169,189.947067 
	C120.623169,181.839218 120.621689,174.061981 120.623978,166.284744 
	C120.624748,163.676514 118.947456,162.479568 116.035454,161.481644 
M200.617004,320.906921 
	C197.000443,319.027893 194.378036,313.885529 189.038177,318.177124 
	C180.630295,324.934479 180.107422,322.203583 186.580414,331.981506 
	C186.946503,332.534546 187.289322,333.104706 187.682098,333.638062 
	C190.809082,337.884186 195.228104,337.944580 198.269318,333.734955 
	C199.626724,331.855988 200.752716,329.806030 202.155518,327.964569 
	C204.148239,325.348724 204.134888,323.159698 200.617004,320.906921 
z"/>
<path fill="#000000" opacity="1.000000" stroke="none" 
	d="
M310.937195,338.792480 
	C322.904083,346.679626 334.946594,345.357056 347.028381,340.382904 
	C355.948639,336.710419 364.593475,332.373749 374.127808,330.315308 
	C384.667267,328.039856 384.641785,327.945160 384.669983,316.880493 
	C384.674225,315.215912 384.568512,313.522522 384.827972,311.892517 
	C385.562012,307.280792 389.068878,304.460693 393.534027,304.700958 
	C397.733154,304.926849 400.938049,307.915161 401.237213,312.411133 
	C401.513245,316.559418 401.446869,320.741455 401.316864,324.901886 
	C401.232544,327.600433 402.358673,328.960541 404.964203,329.223236 
	C416.774536,330.414093 427.357819,335.354919 438.040222,340.010406 
	C451.331024,345.802673 464.292358,346.814301 476.872681,337.862335 
	C480.469025,335.303253 484.267120,336.431152 487.186768,339.645264 
	C490.101715,342.854187 490.105255,347.203705 487.174744,350.538788 
	C483.656219,354.543030 478.949432,356.764648 474.009613,358.355499 
	C470.419403,359.511658 469.846710,361.115509 471.414520,364.570374 
	C478.914856,381.098022 484.856689,398.500305 493.913818,414.105133 
	C502.278381,428.516632 491.266205,453.188202 478.107727,460.358978 
	C451.452271,474.884949 420.519775,459.490875 416.819183,429.440247 
	C416.361511,425.723633 416.900452,422.216614 418.459747,418.744171 
	C426.440643,400.971436 434.226501,383.110748 442.281647,365.372070 
	C443.976868,361.638824 443.715332,360.082825 439.425262,358.637970 
	C431.714203,356.040985 424.438934,352.162231 416.748932,349.488098 
	C398.305054,343.074402 380.106964,344.200470 362.297394,352.209351 
	C357.441895,354.392792 352.550537,356.528259 347.558716,358.368439 
	C341.776978,360.499847 341.717896,360.349304 344.316467,366.211334 
	C351.402588,382.196777 358.057343,398.392273 365.704926,414.104523 
	C372.947723,428.985199 368.356842,441.586456 358.895874,452.765045 
	C347.771210,465.909363 332.574005,467.683868 316.804993,463.698761 
	C301.516357,459.834961 293.488647,448.660400 289.744659,433.869781 
	C288.159546,427.607758 288.903656,421.892365 291.633270,415.987061 
	C299.457855,399.059113 306.828491,381.921906 314.523865,364.933228 
	C316.091705,361.472015 315.915619,359.502502 311.861389,358.290710 
	C307.880280,357.100769 304.143768,355.180115 300.921326,352.427368 
	C296.372589,348.541656 295.468536,344.358856 298.308380,340.207886 
	C301.083893,336.150940 305.255707,335.600067 310.937195,338.792480 
M318.750397,397.129730 
	C316.046509,403.301788 313.342651,409.473846 310.296478,416.427307 
	C323.144104,416.708588 335.067444,416.914154 347.968628,416.306213 
	C341.652191,402.121735 335.768494,388.909119 329.884827,375.696472 
	C329.360718,375.711121 328.836609,375.725739 328.312500,375.740387 
	C325.235779,382.642395 322.159088,389.544434 318.750397,397.129730 
M463.454315,416.658691 
	C467.199310,416.402435 471.024292,417.242737 475.303925,415.895935 
	C469.746643,402.102722 463.892426,388.780212 457.604004,375.654175 
	C457.114960,375.712494 456.625885,375.770782 456.136841,375.829071 
	C450.270142,389.108551 444.403442,402.388062 438.099091,416.658234 
	C446.958862,416.658234 454.714203,416.658234 463.454315,416.658691 
M446.965179,446.678925 
	C462.207062,451.421204 476.719330,445.389404 477.774780,433.911713 
	C463.795868,433.911713 449.820679,433.911713 435.483246,433.911713 
	C437.419403,440.115387 440.895782,444.081360 446.965179,446.678925 
M318.304321,446.350494 
	C333.868164,451.529327 349.869049,445.112488 349.652130,433.752991 
	C335.808563,433.752991 321.968475,433.752991 307.683960,433.752991 
	C309.210571,439.796875 312.676086,443.497375 318.304321,446.350494 
z"/>
<path fill="#000000" opacity="1.000000" stroke="none" 
	d="
M384.660583,436.999939 
	C384.661682,414.517883 384.643951,392.535858 384.676666,370.553894 
	C384.685394,364.693787 386.846771,361.556885 391.178986,360.777100 
	C397.324432,359.670929 401.316681,363.360901 401.328094,370.398315 
	C401.370758,396.710052 401.346436,423.021912 401.348297,449.333710 
	C401.348907,458.326355 401.443481,467.320343 401.306488,476.310883 
	C401.257294,479.540649 402.411346,480.748901 405.669861,480.695892 
	C414.327026,480.554932 422.988556,480.611908 431.647614,480.681976 
	C437.911438,480.732666 441.266754,483.667725 441.325409,488.941193 
	C441.385651,494.356537 438.187469,497.302704 431.885345,497.312408 
	C406.073212,497.352173 380.260956,497.346100 354.448822,497.302826 
	C348.135437,497.292206 344.747833,494.363312 344.682739,489.147583 
	C344.613983,483.639709 347.996429,480.706726 354.598846,480.672180 
	C362.925140,480.628632 371.256165,480.496155 379.576447,480.721710 
	C383.564819,480.829834 384.773132,479.319153 384.721222,475.467957 
	C384.550751,462.813965 384.659332,450.156250 384.660583,436.999939 
z"/>
</svg>