<svg version="1.1" id="Layer_1" xmlns="http://www.w3.org/2000/svg" xmlns:xlink="http://www.w3.org/1999/xlink" x="0px" y="0px"
	 width="100%" viewBox="0 0 512 512" enable-background="new 0 0 512 512" xml:space="preserve">
<path fill="#000000" opacity="1.000000" stroke="none" 
	d="
M513.000000,20.000000 
	C513.000000,86.687561 513.000000,153.375122 512.857727,220.846832 
	C507.576874,234.961853 497.820648,240.534302 483.613770,240.470566 
	C427.973846,240.220886 372.332153,240.369720 316.691101,240.375153 
	C309.140045,240.375900 308.534760,240.970398 308.641632,248.675964 
	C308.768646,257.833405 309.096771,266.981110 308.489014,276.144470 
	C307.574646,289.931122 300.631744,299.594543 288.437347,305.446564 
	C284.495880,307.338013 282.834473,309.734039 282.230072,314.030701 
	C280.516296,326.213837 276.716309,337.589874 268.363220,347.146576 
	C259.188812,357.642914 248.558304,366.379333 237.240936,374.385834 
	C235.836151,375.379639 233.845825,375.907440 233.502991,378.081451 
	C235.151794,379.796173 237.403687,379.986816 239.416275,380.624390 
	C260.036102,387.156616 280.676788,393.623199 301.303589,400.133606 
	C307.335052,402.037262 307.611389,401.903320 307.617920,395.712372 
	C307.642029,372.889557 307.614319,350.066711 307.646851,327.243927 
	C307.670532,310.621399 317.562042,299.391357 334.201752,299.144897 
	C367.844666,298.646606 401.505920,298.667023 435.148804,299.181580 
	C452.418671,299.445740 462.330383,310.581573 462.337616,327.783386 
	C462.359741,380.425812 462.356018,433.068237 462.323578,485.710632 
	C462.322174,488.024231 462.159332,490.382843 461.695312,492.643250 
	C459.542297,503.131622 452.552124,509.262115 443.000000,513.000000 
	C300.979095,513.000000 158.958206,513.000000 16.216850,512.775635 
	C8.762351,509.595612 4.265701,504.410950 1.000000,498.000000 
	C1.000000,493.310760 1.000000,488.621490 1.067284,483.106201 
	C1.598170,481.036102 2.175187,479.821625 2.508896,478.543640 
	C12.369844,440.779449 35.434380,414.730957 72.228058,401.675476 
	C93.861588,393.999298 115.978432,387.686432 137.866074,380.723297 
	C140.129623,380.003204 142.643738,379.699799 144.832596,377.541595 
	C137.747772,372.693970 131.221848,367.841339 124.880363,362.731689 
	C108.734520,349.722290 97.086235,334.037354 94.924522,312.758087 
	C94.546547,309.037445 93.015839,307.305176 89.766823,305.819885 
	C75.785515,299.428375 68.863762,288.214661 68.701965,272.978516 
	C68.517952,255.650375 68.433105,238.314941 68.718437,220.989471 
	C69.163254,193.980011 77.620682,169.596283 94.425240,148.428619 
	C127.477501,106.794701 182.458954,92.044434 232.098297,111.091789 
	C234.169189,111.886414 236.123825,113.556732 238.767273,112.730087 
	C240.030304,110.752937 239.601517,108.536446 239.603714,106.428307 
	C239.631256,79.933228 239.615662,53.438118 239.631882,26.943029 
	C239.633408,24.458178 239.750641,22.028189 240.413055,19.543571 
	C242.929428,10.105124 249.794174,4.953965 258.000000,1.000000 
	C336.354218,1.000000 414.708466,1.000000 493.842712,1.153007 
	C503.869171,4.469524 509.848053,10.845238 513.000000,20.000000 
M276.865509,141.524841 
	C279.747467,144.863434 281.715515,142.537918 283.795990,140.456390 
	C297.577637,126.667725 311.349823,112.869453 325.185181,99.134789 
	C331.577332,92.789177 335.969238,92.770584 342.280334,99.036575 
	C356.469116,113.124046 370.611023,127.258858 384.744507,141.401917 
	C393.479919,150.143295 393.457214,150.165985 402.263031,141.509781 
	C408.271271,135.603638 412.812256,135.611115 418.937897,141.654022 
	C426.410553,149.025787 433.906586,156.377045 441.226715,163.898468 
	C443.783173,166.525223 445.669556,166.626221 448.220367,163.930466 
	C452.799072,159.091568 457.594238,154.454254 462.371185,149.806961 
	C467.396576,144.917984 472.456207,144.432693 476.438446,148.329254 
	C480.535889,152.338562 480.263702,157.341339 475.335480,162.381973 
	C467.764313,170.125793 460.111572,177.793762 452.345459,185.341660 
	C446.918518,190.616135 442.546936,190.549652 437.178009,185.314575 
	C430.855621,179.149811 424.664032,172.851105 418.379028,166.647675 
	C410.652039,159.020935 410.635681,159.037537 402.962830,166.568665 
	C395.286530,174.103195 391.706146,174.148834 384.191284,166.652130 
	C368.620178,151.118683 353.019501,135.613800 337.587372,119.943146 
	C334.670258,116.980965 332.853638,117.016342 329.954926,119.986504 
	C318.318054,131.910339 306.530029,143.691071 294.595734,155.317200 
	C291.538574,158.295380 291.278381,160.650040 293.354218,164.373001 
	C302.226501,180.285294 307.541321,197.332230 308.327515,215.626984 
	C308.621948,222.478653 308.522217,222.547974 315.471497,222.559265 
	C316.304626,222.560623 317.137817,222.562164 317.970917,222.557877 
	C324.401794,222.524811 324.638153,222.314362 324.644714,215.693863 
	C324.663025,197.198029 324.651886,178.702148 324.654053,160.206299 
	C324.654236,158.706680 324.617676,157.204926 324.682709,155.707825 
	C324.939423,149.794205 328.109100,146.026779 333.067383,145.690308 
	C338.394073,145.328857 342.043549,148.625824 342.923981,154.758728 
	C343.182709,156.560989 343.157990,158.412872 343.157867,160.242004 
	C343.156555,179.071014 343.216217,197.900757 343.054108,216.728516 
	C343.017181,221.015915 344.514771,222.987061 348.863007,222.606781 
	C350.185852,222.491104 351.536774,222.488281 352.858795,222.609222 
	C357.121887,222.999222 358.847473,221.240311 358.768555,216.851105 
	C358.570801,205.857147 358.708008,194.857224 358.702942,183.859695 
	C358.701874,181.522476 358.719238,179.204910 359.644470,176.982788 
	C361.148865,173.369461 363.863464,171.400955 367.721832,171.351883 
	C371.766937,171.300430 374.751495,173.139069 376.206787,177.073471 
	C377.087250,179.453766 377.260468,181.927628 377.250946,184.447952 
	C377.213776,194.278961 377.220673,204.110153 377.226898,213.941284 
	C377.232422,222.656281 377.241638,222.656296 386.122681,222.575974 
	C392.359192,222.519577 392.733002,222.178177 392.788269,216.117218 
	C392.843048,210.119247 392.640167,204.110489 392.935150,198.125427 
	C393.241150,191.916199 396.784821,188.468887 402.174500,188.504120 
	C407.445465,188.538574 410.994385,192.238174 411.249023,198.347412 
	C411.450104,203.171661 411.319580,208.010025 411.323273,212.842133 
	C411.331055,222.980103 411.325134,222.853287 421.581604,222.656036 
	C425.427185,222.582092 426.998718,221.104874 426.980164,217.299438 
	C426.959106,212.979309 426.711243,208.639572 427.537994,204.338165 
	C428.418274,199.758240 431.357452,197.379227 435.734619,196.872559 
	C439.893463,196.391190 443.851807,199.400940 444.827606,203.855804 
	C445.388641,206.417145 445.305695,209.143707 445.318481,211.796829 
	C445.373413,223.192535 445.343323,223.091370 456.569275,222.667114 
	C460.218140,222.529251 461.633240,221.010910 461.591827,217.473892 
	C461.511902,210.643539 461.440369,203.805511 461.675201,196.981323 
	C461.884857,190.889786 466.900757,187.187622 472.698608,188.788773 
	C477.325714,190.066574 479.304962,193.575409 479.344849,198.214935 
	C479.400757,204.713028 479.457458,211.213409 479.341797,217.709747 
	C479.282410,221.043762 480.543274,222.529938 483.990051,222.650574 
	C491.854523,222.925842 495.610992,219.217407 495.612640,210.661285 
	C495.623993,150.674728 495.623108,90.688171 495.609467,30.701622 
	C495.607361,21.421589 492.634399,18.457743 483.307495,18.448488 
	C463.478638,18.428810 443.649750,18.465433 423.820862,18.463318 
	C372.332397,18.457825 320.843933,18.435081 269.355469,18.441923 
	C260.770111,18.443066 257.426788,21.282749 257.410400,28.890585 
	C257.344757,59.383610 257.408325,89.876915 257.339081,120.369926 
	C257.332336,123.335373 258.324799,125.360146 260.760101,127.069069 
	C266.506561,131.101456 271.559998,135.952209 276.865509,141.524841 
M214.559174,367.027954 
	C227.563202,359.734161 239.417175,350.921051 250.085327,340.481384 
	C257.619110,333.108917 262.071655,324.297455 263.877716,313.922211 
	C264.629211,309.605133 264.573639,305.312225 264.858459,301.004608 
	C265.299072,294.340881 268.136383,291.369995 274.633942,290.618683 
	C283.839355,289.554199 290.449585,282.798492 290.601318,274.299835 
	C290.751068,265.913544 284.270691,258.841583 275.157043,257.445618 
	C267.626099,256.292084 265.635040,254.229523 264.722351,246.636322 
	C263.591583,237.229156 257.657532,230.832397 248.139526,229.316391 
	C228.147491,226.132080 209.449310,219.575348 192.480698,208.416718 
	C189.924240,206.735550 187.760757,206.672653 185.154541,208.373932 
	C168.310013,219.369644 149.798401,225.944748 130.000748,229.257629 
	C119.089661,231.083450 113.674110,237.287567 112.368744,248.472916 
	C111.704704,254.162842 109.254219,256.612671 103.506195,257.389679 
	C102.356720,257.545105 101.209976,257.767517 100.085136,258.050934 
	C91.445412,260.227997 86.888611,266.320007 87.251022,275.170959 
	C87.561958,282.764740 93.297165,289.028015 101.286896,290.499176 
	C111.216888,292.327606 112.039055,293.549194 112.417885,303.405914 
	C112.979317,318.013458 117.180222,331.082489 128.362335,341.448303 
	C140.295883,352.510651 153.310852,361.840851 167.635544,369.588837 
	C181.952667,377.332733 195.852768,377.405670 209.938858,369.492126 
	C211.245682,368.757935 212.589066,368.088806 214.559174,367.027954 
M95.647758,238.146057 
	C100.645264,223.007339 110.915428,213.699692 126.678612,211.207764 
	C145.078339,208.299026 161.877655,201.615280 177.562454,191.689362 
	C185.357971,186.756058 193.306961,187.374420 201.052368,192.347122 
	C215.799240,201.814911 231.729477,208.237640 249.130814,210.883087 
	C264.976471,213.292007 276.043121,221.681915 281.375549,237.081360 
	C281.538635,237.552322 281.700165,238.029739 281.924744,238.472534 
	C283.311554,241.206924 286.100098,242.268845 288.587250,242.047241 
	C291.591766,241.779572 290.565216,238.669632 290.580017,236.688400 
	C290.652161,227.038895 290.883789,217.385361 289.540680,207.775253 
	C281.367920,149.298218 222.008698,109.503746 164.472733,124.000572 
	C119.200050,135.407516 81.797028,176.308548 87.122398,238.834702 
	C87.386131,241.931244 88.804794,242.559723 91.402206,241.537354 
	C92.923576,240.938538 94.652260,240.589493 95.647758,238.146057 
M325.893005,367.500000 
	C325.905945,405.979065 325.908691,444.458130 325.938568,482.937195 
	C325.946625,493.298553 328.260925,495.614532 338.530151,495.618530 
	C369.180267,495.630524 399.830383,495.626343 430.480499,495.619751 
	C441.952820,495.617249 444.123413,493.451508 444.132568,481.856232 
	C444.163239,442.877380 444.107605,403.898315 444.218994,364.919739 
	C444.254669,352.433014 444.893341,339.940247 444.181274,327.463135 
	C443.712982,319.256897 441.479706,317.338654 433.270203,317.334717 
	C401.120911,317.319336 368.971588,317.322693 336.822296,317.345184 
	C328.575653,317.350952 326.048706,319.768555 325.974609,328.021301 
	C325.859497,340.846741 325.911713,353.673706 325.893005,367.500000 
M28.722260,495.621460 
	C49.856884,495.617828 70.991516,495.624298 92.126122,495.605347 
	C100.038048,495.598267 100.341095,495.239899 98.523415,487.776733 
	C93.084099,465.443512 93.433899,443.030518 97.326027,420.521332 
	C97.722931,418.225983 99.062866,415.838226 97.841225,413.094543 
	C92.154358,413.473877 87.109001,415.757385 81.977615,417.458069 
	C48.842064,428.440094 27.945873,450.879028 19.719301,484.872406 
	C17.594820,493.651031 19.156239,495.489929 28.722260,495.621460 
M264.506104,439.983215 
	C262.897644,430.358826 262.765961,420.406036 258.856506,411.231293 
	C256.544861,411.882996 255.938477,413.355743 255.066727,414.524353 
	C248.104782,423.857361 241.145538,433.192535 234.234299,442.563049 
	C231.120575,446.784760 227.557465,450.372101 222.520325,452.301666 
	C216.859909,454.469910 214.428574,458.546600 215.545792,464.565094 
	C217.180847,473.373169 219.238968,482.102722 220.877838,490.910187 
	C221.566971,494.613556 223.461212,495.765900 227.066101,495.680664 
	C235.214539,495.488098 243.382370,495.355225 251.519257,495.716583 
	C256.501556,495.937897 258.462067,493.868011 259.810486,489.289429 
	C264.481934,473.427582 265.362854,457.269165 264.506104,439.983215 
M113.330765,466.376862 
	C114.035019,475.019012 115.948868,483.414520 118.437851,491.699036 
	C119.271362,494.473358 120.951706,495.690704 123.927132,495.653168 
	C133.074417,495.537842 142.224487,495.552979 151.372421,495.634491 
	C154.177658,495.659485 155.834625,494.425385 156.367615,491.802185 
	C158.283920,482.370789 160.308304,472.954895 161.912308,463.468933 
	C162.863312,457.844788 160.578583,454.385101 155.365356,452.439026 
	C150.850906,450.753784 147.258011,447.951599 144.412949,444.112885 
	C138.570023,436.229370 132.797562,428.291779 126.837006,420.498108 
	C124.288948,417.166412 122.240532,413.364380 118.250496,410.116028 
	C113.889458,428.813721 110.924049,446.876862 113.330765,466.376862 
M286.242584,414.473846 
	C284.033966,413.942902 281.968140,412.645844 279.067902,413.243683 
	C279.322449,415.193420 279.472107,417.143402 279.843414,419.050232 
	C281.879181,429.504913 282.998352,440.085663 283.215424,450.699280 
	C283.484497,463.854614 281.728149,476.841919 278.543945,489.636932 
	C277.972870,491.931580 276.318390,495.426514 280.977112,495.531799 
	C288.954529,495.712067 296.939392,495.586304 304.920898,495.549438 
	C307.141846,495.539185 308.055878,494.524109 308.032898,492.109528 
	C307.828583,470.664856 307.617706,449.218292 307.739777,427.774170 
	C307.765259,423.305756 306.138947,420.980042 302.122498,419.720825 
	C297.052917,418.131470 292.028442,416.398193 286.242584,414.473846 
M205.391083,429.202484 
	C206.569824,430.125244 207.755646,431.039124 208.926147,431.972229 
	C215.024918,436.834259 215.711105,436.771790 220.314423,430.657135 
	C225.214752,424.147888 230.157272,417.668213 234.940369,411.073364 
	C243.487350,399.288940 244.342560,401.510620 229.944687,396.677216 
	C227.421249,395.830078 225.594894,396.111298 223.859680,398.330017 
	C217.406769,406.580994 210.835846,414.740143 204.265854,422.898804 
	C202.471436,425.127075 202.356430,427.048370 205.391083,429.202484 
M169.811722,418.642426 
	C164.520432,412.028992 159.222366,405.420959 153.943115,398.797943 
	C152.788910,397.349976 151.708878,395.712158 149.499313,396.344971 
	C144.952393,397.647125 140.233521,398.520691 136.245911,400.945221 
	C136.228958,403.006836 137.384735,404.063690 138.255463,405.237335 
	C144.489380,413.640076 150.732376,422.036224 157.004471,430.410522 
	C161.789246,436.798950 162.552017,436.893738 168.751068,431.830933 
	C176.363586,425.613739 176.898209,427.428528 169.811722,418.642426 
M181.762970,495.620056 
	C187.240631,495.614502 192.718323,495.596313 198.195938,495.608337 
	C201.240585,495.615021 203.066452,494.447266 202.426651,491.101929 
	C201.400681,485.737610 200.263367,480.394684 199.197556,475.037842 
	C198.601898,472.044006 196.613510,470.664307 193.809555,471.184265 
	C188.739349,472.124420 182.792343,468.357483 178.607666,473.945984 
	C178.338425,474.305511 178.387848,474.903259 178.287643,475.389862 
	C177.319412,480.091583 176.236298,484.773224 175.411545,489.499939 
	C174.388885,495.360809 174.534149,495.436096 181.762970,495.620056 
M177.606155,392.465332 
	C175.868683,392.316925 174.312302,390.806366 171.970032,391.904358 
	C177.419434,398.849426 182.509583,405.842133 188.995453,412.753540 
	C194.643906,405.655792 199.820602,399.150879 204.997284,392.645966 
	C204.751953,392.259094 204.506622,391.872253 204.261276,391.485382 
	C195.672089,393.804626 187.056961,395.041931 177.606155,392.465332 
M184.747681,442.456970 
	C183.198502,443.703400 181.648392,444.948700 180.100403,446.196625 
	C178.682404,447.339813 177.994232,448.762726 178.608170,450.569977 
	C179.188385,452.278107 180.641663,452.609283 182.210022,452.614868 
	C186.518311,452.630188 190.826675,452.617950 195.135010,452.619019 
	C196.935699,452.619476 198.398315,452.052460 199.081009,450.227570 
	C199.841537,448.194611 198.403214,447.179688 197.119736,446.123901 
	C195.457153,444.756195 193.638519,443.550751 192.121185,442.040314 
	C189.741745,439.671722 187.560410,439.768829 184.747681,442.456970 
z"/>
<path fill="#000000" opacity="1.000000" stroke="none" 
	d="
M466.240967,118.061996 
	C464.536102,120.603157 462.808624,122.729942 460.506042,124.067879 
	C456.697174,126.281082 453.550354,128.625870 452.291260,133.339996 
	C451.406799,136.651596 447.933899,137.946075 444.622650,137.888474 
	C440.867401,137.823135 437.604126,136.041702 436.582123,132.264725 
	C435.566742,128.512314 433.273956,126.476509 430.072296,124.704170 
	C426.839508,122.914619 424.345459,120.127808 422.525940,116.871170 
	C420.202515,112.712563 421.080048,107.893410 424.533783,105.182091 
	C427.959961,102.492424 433.012939,102.755753 436.463074,105.862740 
	C437.324951,106.638870 437.998871,107.620415 438.835571,108.428398 
	C441.386200,110.891479 444.191895,112.477318 447.783447,110.577576 
	C450.996429,108.878082 453.058075,106.320503 452.487610,102.544060 
	C451.870850,98.461548 449.235901,95.945663 445.149139,95.509827 
	C442.329041,95.209084 439.488831,95.114288 436.805511,94.157585 
	C426.429688,90.458282 420.121063,83.091125 418.870026,72.220589 
	C417.642792,61.557224 421.977753,52.990807 431.071045,47.162922 
	C433.545197,45.577244 435.362610,44.124275 436.189514,40.996819 
	C437.254120,36.970470 440.458496,34.626945 444.808899,34.749619 
	C449.075073,34.869915 452.205139,37.046711 453.206451,41.263916 
	C453.856476,44.001564 455.323212,45.563297 457.673096,46.815048 
	C461.255737,48.723461 464.170471,51.476887 466.428986,54.853008 
	C469.403442,59.299274 468.794708,64.448410 465.039673,67.431213 
	C461.266632,70.428307 456.115021,69.915413 452.431152,66.174492 
	C452.314392,66.055931 452.201538,65.931885 452.100006,65.800247 
	C449.305389,62.175907 445.982758,60.031120 441.336151,62.330833 
	C437.904572,64.029205 436.706665,67.018822 437.277130,70.667023 
	C438.090363,75.867828 442.166260,76.974922 446.457458,77.517738 
	C467.308380,80.155304 476.886200,99.405762 466.240967,118.061996 
z"/>
<path fill="#000000" opacity="1.000000" stroke="none" 
	d="
M401.989899,333.557556 
	C404.818878,333.559174 407.150543,333.539246 409.481628,333.567322 
	C421.063171,333.706787 428.067505,340.600647 428.266296,352.251831 
	C428.396942,359.909882 428.393250,367.573578 428.270508,375.231873 
	C428.089294,386.540985 420.791046,394.043640 409.431152,394.185608 
	C393.114014,394.389526 376.790405,394.398254 360.473450,394.189087 
	C349.151276,394.043945 341.895203,386.505707 341.716736,375.147675 
	C341.593811,367.322754 341.561584,359.491913 341.717133,351.668243 
	C341.934784,340.721832 349.074341,333.648254 360.027069,333.565002 
	C373.848022,333.459961 387.670502,333.551453 401.989899,333.557556 
M401.371246,351.363617 
	C389.550964,351.367126 377.728424,351.505280 365.911621,351.304138 
	C361.534607,351.229645 359.888641,352.889984 360.091766,357.166382 
	C360.304779,361.651428 360.232361,366.156128 360.125488,370.648438 
	C360.040985,374.199066 361.495728,375.797607 365.151184,375.772644 
	C378.469147,375.681641 391.788269,375.691803 405.106476,375.760529 
	C408.531677,375.778168 409.924500,374.234619 409.863220,370.914825 
	C409.789520,366.920990 409.888763,362.924194 409.881744,358.928741 
	C409.868744,351.543915 409.754669,351.439392 401.371246,351.363617 
z"/>
<path fill="#000000" opacity="1.000000" stroke="none" 
	d="
M360.145508,423.962891 
	C359.667938,433.053040 356.577698,436.786621 350.180847,436.431061 
	C349.518066,436.394226 348.837891,436.357483 348.202759,436.184784 
	C343.107788,434.799377 341.139526,429.900635 341.685822,420.042114 
	C341.983643,414.667969 344.738495,411.201508 349.369843,410.373230 
	C353.906616,409.561798 358.141876,412.088196 359.307068,416.610596 
	C359.880615,418.836639 359.884552,421.209412 360.145508,423.962891 
z"/>
<path fill="#000000" opacity="1.000000" stroke="none" 
	d="
M392.355713,413.943848 
	C394.904968,418.800446 394.597778,423.655945 393.966888,428.404999 
	C393.274170,433.619019 389.708252,436.507538 384.859436,436.467010 
	C380.139862,436.427612 376.596924,433.289459 375.953308,428.155914 
	C375.605072,425.378296 375.637329,422.517365 375.827118,419.716309 
	C376.101685,415.663879 377.717957,412.227478 381.841095,410.812988 
	C385.792755,409.457336 389.362366,410.247681 392.355713,413.943848 
z"/>
<path fill="#000000" opacity="1.000000" stroke="none" 
	d="
M359.753540,471.228271 
	C357.872772,477.069305 354.544220,479.725647 350.086823,479.278168 
	C345.424347,478.810059 342.004242,475.000549 341.763794,469.577820 
	C341.610016,466.109680 341.227020,462.590424 342.356018,459.162567 
	C343.733459,454.980316 346.786499,452.807587 350.971313,452.853394 
	C355.171051,452.899384 358.155396,455.178680 359.376221,459.404968 
	C360.464813,463.173615 360.184692,466.992096 359.753540,471.228271 
z"/>
<path fill="#000000" opacity="1.000000" stroke="none" 
	d="
M378.015747,456.169495 
	C381.312927,453.079132 384.652924,451.829315 388.696716,453.710480 
	C392.684570,455.565613 394.012604,459.013397 394.197906,463.005157 
	C394.343018,466.130951 394.615631,469.303436 393.668091,472.388245 
	C392.352966,476.669800 389.515198,479.208832 385.005371,479.241058 
	C380.467438,479.273438 377.307556,476.741913 376.378143,472.426300 
	C375.225159,467.072510 374.796509,461.575684 378.015747,456.169495 
z"/>
<path fill="#000000" opacity="1.000000" stroke="none" 
	d="
M425.355957,412.728027 
	C429.625519,418.553406 428.914917,424.685760 427.323364,430.653290 
	C426.215240,434.808350 422.813110,436.658020 418.482788,436.378052 
	C414.370056,436.112152 411.762878,433.926056 410.595886,429.954712 
	C409.588928,426.527924 409.647583,423.031219 410.064148,419.575256 
	C411.101593,410.968262 417.469788,407.998199 425.355957,412.728027 
z"/>
<path fill="#000000" opacity="1.000000" stroke="none" 
	d="
M420.618469,479.166321 
	C413.903870,478.893341 410.963806,476.454163 410.124359,470.469574 
	C409.567749,466.501282 409.467773,462.461731 410.871307,458.617188 
	C413.133453,452.420898 421.010651,450.870270 425.567047,455.645630 
	C431.230896,461.581726 428.497986,475.672272 420.618469,479.166321 
z"/>
</svg>