<svg version="1.1" id="Layer_1" xmlns="http://www.w3.org/2000/svg" xmlns:xlink="http://www.w3.org/1999/xlink" x="0px" y="0px"
	 width="100%" viewBox="0 0 512 512" enable-background="new 0 0 512 512" xml:space="preserve">
<path fill="#000000" opacity="1.000000" stroke="none" 
	d="
M235.768539,333.141449 
	C228.421570,319.650757 221.170059,306.525818 214.100143,293.303833 
	C212.574997,290.451508 210.742645,289.131622 207.434158,289.305054 
	C198.132935,289.792572 188.784927,288.580109 179.501785,290.132324 
	C164.593506,292.625061 154.422287,301.081543 148.567459,314.813385 
	C145.106720,322.930176 141.960815,331.181519 138.698456,339.382355 
	C137.960358,341.237793 137.341553,343.112823 137.344070,345.176849 
	C137.379669,374.342407 137.380692,403.507996 137.404526,432.673584 
	C137.405319,433.635620 137.558289,434.597534 137.750610,436.852753 
	C146.288681,420.999054 153.938889,406.070953 162.272232,391.534515 
	C169.811996,378.382294 175.155136,364.084686 183.579132,351.425201 
	C185.986481,347.807465 188.870331,344.565887 192.034973,341.588562 
	C192.878265,340.795227 193.945526,339.448669 194.764572,339.548553 
	C200.272049,340.220062 201.444244,345.789307 204.823547,348.918915 
	C206.926437,350.866394 205.445419,352.430206 203.893188,353.902527 
	C195.534607,361.830688 190.236832,371.450165 188.161804,382.790588 
	C185.386841,397.956207 188.201309,411.984406 197.365189,424.450256 
	C200.183060,428.283447 201.478546,432.121002 201.427551,436.882629 
	C201.233017,455.046692 201.241898,473.215149 201.424728,491.379456 
	C201.468491,495.728973 200.501892,497.636139 195.641907,497.449646 
	C182.818542,496.957520 184.777924,498.980438 184.682648,486.644897 
	C184.565521,471.479584 184.605713,456.312317 184.702133,441.146698 
	C184.721924,438.031128 184.162842,435.325714 182.295654,432.737213 
	C177.605835,426.235718 174.664459,418.836731 171.883606,409.905151 
	C167.915787,417.115417 164.515976,423.137146 161.261948,429.236664 
	C152.245270,446.137939 143.257568,463.054871 134.319580,479.997894 
	C127.381256,493.150238 113.736603,499.472198 96.973839,497.180573 
	C83.078560,495.280975 70.786003,483.886414 67.674049,470.489960 
	C65.422585,460.797729 67.586525,451.243286 68.112724,441.665619 
	C68.960831,426.228516 70.335655,410.816467 71.708488,395.413483 
	C72.567581,385.774597 72.606483,376.133301 72.729340,366.476624 
	C72.779655,362.521667 71.365669,361.215729 67.489044,361.293762 
	C51.521755,361.615143 38.262253,354.032349 25.490786,345.833160 
	C19.508991,341.992889 16.841234,335.359955 16.700842,328.130035 
	C16.548794,320.299835 16.588776,312.463715 16.675076,304.631592 
	C16.822931,291.213348 29.409939,282.880280 41.920704,288.111481 
	C49.267815,291.183563 56.108448,295.459595 64.312286,296.275208 
	C70.129211,296.853516 75.899040,296.574188 81.628357,296.563171 
	C82.773964,293.876221 81.036850,292.062775 80.504425,290.102539 
	C77.145859,277.737488 83.266876,265.397186 95.183655,260.877930 
	C106.753578,256.490265 119.814964,261.560486 125.149574,272.956512 
	C128.533081,280.184540 131.216110,287.739319 134.265030,295.126190 
	C134.821686,296.474823 135.627777,297.720520 136.401962,299.169525 
	C141.518631,295.572662 142.504181,290.790771 141.519287,285.412537 
	C139.709549,275.529877 139.588867,265.564148 139.615753,255.564377 
	C139.657028,240.205841 142.532959,225.329224 148.722076,211.395462 
	C158.936295,188.399780 160.673340,164.392868 158.103378,139.949493 
	C151.554016,77.656967 190.531082,30.915968 241.244202,19.116663 
	C299.850861,5.480789 359.785370,44.651993 370.459381,103.663681 
	C372.736206,116.250916 372.453552,128.795135 371.620514,141.463989 
	C370.114594,164.366867 370.734314,186.964233 380.279419,208.598282 
	C391.074524,233.065460 392.497223,258.778503 388.603699,284.961212 
	C387.927246,289.510284 388.117401,293.635864 391.299957,297.607819 
	C395.718201,303.121948 397.767181,309.972961 400.176178,316.531006 
	C401.366547,319.771454 402.599487,321.040710 406.314697,319.474457 
	C416.707855,315.092773 428.033997,314.807037 438.958374,312.788239 
	C454.157349,309.979523 469.451538,307.690002 484.686432,305.070221 
	C493.291107,303.590576 497.336639,306.841553 497.340179,315.649200 
	C497.357605,359.314606 497.312378,402.980042 497.397705,446.645294 
	C497.407043,451.437866 496.216339,455.223999 491.496643,457.101685 
	C490.066376,457.670776 489.450531,458.575836 489.080872,459.964294 
	C486.792206,468.561584 480.590302,472.255493 472.274109,473.264587 
	C471.119476,473.404694 469.976715,473.668243 468.819427,473.756287 
	C460.470215,474.391449 454.666504,477.377197 449.097595,484.958221 
	C434.520233,504.802429 404.253021,500.473602 394.101074,478.047638 
	C392.580505,474.688629 390.860168,472.990234 387.045074,473.330750 
	C375.231018,474.385223 363.971680,470.945404 352.553253,468.815826 
	C350.458649,468.425171 348.343903,468.142853 345.348969,467.670135 
	C345.348969,475.325165 345.353088,482.420258 345.347870,489.515350 
	C345.342102,497.342651 345.338379,497.343140 337.508759,497.349854 
	C336.008850,497.351135 334.501862,497.252655 333.010437,497.364288 
	C329.811554,497.603760 328.567261,496.247742 328.621979,493.006744 
	C328.759766,484.842773 328.563538,476.673126 328.701324,468.509155 
	C328.755890,465.276947 327.675934,463.750183 324.334198,463.148865 
	C315.340240,461.530426 306.385773,459.664520 297.465759,457.672394 
	C290.406616,456.095917 288.672394,453.778229 288.667145,446.597168 
	C288.643860,414.764771 288.651062,382.932343 288.647278,351.099945 
	C288.647095,349.308441 288.647247,347.516937 288.647247,345.725433 
	C288.329865,345.616028 288.012451,345.506592 287.695068,345.397186 
	C283.887604,352.285309 280.077728,359.172150 276.274231,366.062439 
	C275.227478,367.958649 274.261871,369.902435 273.152191,371.760620 
	C268.622559,379.345612 261.106567,379.366516 256.783783,371.626434 
	C249.716873,358.972839 242.869186,346.196838 235.768539,333.141449 
M224.648666,242.111069 
	C225.051498,238.569824 222.356430,237.328949 220.035217,235.680786 
	C197.496552,219.677505 185.350647,197.974854 184.709641,170.211349 
	C184.413559,157.387512 184.838638,144.547394 184.567627,131.722443 
	C184.460876,126.670250 186.228973,123.194328 190.277924,120.354683 
	C204.776398,110.186508 215.603973,96.889915 223.425827,81.047432 
	C228.413223,70.945862 233.373886,69.928207 241.996750,77.254402 
	C249.635254,83.744263 257.748810,89.540398 266.285858,94.777557 
	C288.156891,108.194664 311.933472,116.315231 337.138885,120.617615 
	C343.314819,121.671806 345.302490,124.335228 345.333527,130.547363 
	C345.385162,140.878281 345.363831,151.209656 345.344391,161.540787 
	C345.329346,169.522415 345.615631,177.498245 343.814606,185.397903 
	C338.966949,206.660675 327.744202,223.549240 309.703156,235.854263 
	C307.492981,237.361710 305.258850,238.621307 305.315216,241.939636 
	C305.459442,250.435349 305.398346,258.935425 305.342407,267.433228 
	C305.318848,271.011230 307.076874,272.623657 310.532898,272.631195 
	C315.198517,272.641327 319.865112,272.590668 324.529572,272.668091 
	C339.595642,272.918121 354.941315,270.817413 369.170685,278.121033 
	C371.589569,279.362610 372.369019,277.714417 372.645844,275.535217 
	C375.235962,255.144363 372.940796,235.404480 365.070801,216.337875 
	C356.165436,194.762970 352.362579,172.503220 354.270264,149.015152 
	C355.299744,136.340073 356.612000,123.518555 354.588531,110.666290 
	C346.705261,60.594982 301.370148,28.898609 255.952316,34.184471 
	C221.660080,38.175503 197.441254,56.192547 182.489120,87.063187 
	C172.997864,106.659088 173.891357,127.537804 175.628632,148.298080 
	C177.440796,169.953308 175.190598,190.921021 166.976227,210.991379 
	C158.887115,230.755707 154.333755,250.910233 157.280792,272.329742 
	C157.578445,274.493073 156.448349,277.031830 159.067032,279.025238 
	C169.738190,273.354309 181.352753,272.164337 193.334717,272.603729 
	C201.488678,272.902802 209.662689,272.690765 217.827423,272.647186 
	C223.554657,272.616608 224.594757,271.611023 224.637039,265.989319 
	C224.694687,258.324646 224.654449,250.659286 224.648666,242.111069 
M203.343933,184.163193 
	C209.820038,211.597702 238.421158,236.460648 273.008118,231.888901 
	C298.312256,228.544159 320.621948,209.243576 326.619324,184.001190 
	C330.133026,169.212448 328.201263,154.166672 328.623871,139.232803 
	C328.717010,135.942139 326.105560,135.797409 323.829315,135.330002 
	C298.284912,130.084671 274.452454,120.623154 252.605453,106.316261 
	C247.080627,102.698242 241.664993,98.913483 236.460846,95.382866 
	C234.392792,96.234123 233.902237,97.745186 233.140274,98.994438 
	C227.204239,108.726936 220.709320,118.408279 211.473404,124.902534 
	C202.194397,131.427078 200.450058,139.329910 201.210220,149.555252 
	C202.045822,160.795364 200.418854,172.192810 203.343933,184.163193 
M326.166809,351.432983 
	C319.454559,350.624359 312.995544,348.202393 306.441040,348.011627 
	C305.324524,349.063629 305.368286,350.088257 305.367981,351.079376 
	C305.359131,380.036011 305.385956,408.992676 305.314606,437.949158 
	C305.306915,441.067352 306.544312,442.237946 309.575012,442.809326 
	C322.787903,445.300476 335.938477,448.120056 349.137939,450.685150 
	C355.399261,451.901917 361.586975,453.739563 368.140503,454.020905 
	C368.375427,452.829834 368.609161,452.196289 368.609711,451.562592 
	C368.635223,422.273224 368.618134,392.983795 368.681854,363.694550 
	C368.688293,360.728668 367.309021,359.728149 364.583313,359.200562 
	C352.036804,356.772064 339.527100,354.153381 326.166809,351.432983 
M471.320404,408.674805 
	C474.207947,409.165039 477.095490,409.655243 480.299683,410.199219 
	C480.299683,389.310760 480.299683,368.753754 480.299683,347.854706 
	C478.131226,348.088196 476.311523,348.141327 474.552490,348.495667 
	C457.276093,351.975616 440.045715,355.701050 422.716400,358.890076 
	C418.137177,359.732788 417.254669,361.739319 417.276215,365.878143 
	C417.420135,393.538574 417.337280,421.200165 417.385651,448.861267 
	C417.388672,450.582245 416.697083,452.533234 418.227509,453.961609 
	C423.395416,454.522369 425.065948,452.187805 424.736847,447.283112 
	C424.380676,441.974854 424.577118,436.622375 424.680847,431.292084 
	C424.841949,423.014954 429.939117,415.846649 437.976532,413.963715 
	C448.642792,411.464905 459.477692,409.675507 471.320404,408.674805 
M96.546791,284.235443 
	C99.100395,289.655487 101.823662,295.003387 104.165726,300.513336 
	C107.270142,307.816833 103.695274,313.214996 95.800797,313.312012 
	C87.638985,313.412354 79.465370,313.089050 71.314384,313.403656 
	C60.182755,313.833191 49.886742,311.264496 40.116440,306.065369 
	C38.318295,305.108490 36.593922,303.495728 33.612392,304.221008 
	C33.612392,312.263184 33.482159,320.350464 33.707493,328.427795 
	C33.761238,330.354340 35.129639,332.287567 36.998688,333.226196 
	C45.142639,337.315857 52.772781,342.768829 62.156506,343.779846 
	C80.422005,345.747803 98.757668,344.204498 117.056198,344.642792 
	C120.026947,344.713959 120.557266,342.940521 120.664894,340.453918 
	C121.526657,320.544830 121.327507,300.870605 111.030540,282.771790 
	C109.091103,279.362885 107.382141,276.198059 103.056656,276.472961 
	C98.908852,276.736603 97.183716,279.770416 96.546791,284.235443 
M241.349747,263.474487 
	C242.042191,272.522766 240.728043,280.772034 232.515625,286.425232 
	C230.786423,287.615601 231.257858,289.291229 232.130295,290.880463 
	C234.211060,294.670807 236.312393,298.450867 238.320786,302.279510 
	C239.314819,304.174500 240.844528,304.666321 242.842728,304.661346 
	C257.483673,304.625092 272.124725,304.631744 286.765686,304.660248 
	C288.712646,304.664032 290.423523,304.327820 291.454010,302.482452 
	C294.116669,297.714294 297.133820,293.125092 299.196930,287.571045 
	C289.588104,282.004761 288.046661,273.047516 288.575745,263.013153 
	C288.850800,257.797211 289.113586,252.484634 288.082062,246.547653 
	C272.471100,250.074402 257.224854,250.625931 241.350555,246.067322 
	C241.350555,252.260971 241.350555,257.372986 241.349747,263.474487 
M114.766281,475.275879 
	C118.614532,471.434692 120.551094,466.664734 120.583878,461.358490 
	C120.714424,440.226837 120.594788,419.093719 120.699524,397.961792 
	C120.716812,394.473999 119.392174,393.245850 115.985390,393.318909 
	C109.000038,393.468719 101.995277,393.621796 95.024986,393.261383 
	C89.999458,393.001495 88.514992,394.902191 88.224297,399.801514 
	C87.063637,419.363220 85.672356,438.917450 83.930130,458.435547 
	C83.189621,466.731323 85.465034,473.275543 92.526917,477.649994 
	C100.081360,482.329590 107.416008,481.179138 114.766281,475.275879 
M385.349579,398.499908 
	C385.349518,414.806641 385.307617,431.113495 385.364563,447.420013 
	C385.400543,457.718140 384.046539,456.395416 394.758972,456.742462 
	C399.342316,456.890900 400.783630,455.418579 400.750580,450.791107 
	C400.561401,424.335663 400.708221,397.877991 400.642029,371.421356 
	C400.614258,360.328522 402.242401,361.575012 390.454254,361.294495 
	C386.516113,361.200714 385.215057,362.674652 385.287445,366.551605 
	C385.479950,376.864502 385.351105,387.183380 385.349579,398.499908 
M352.935669,290.454773 
	C342.549347,288.457947 332.050812,289.669708 321.605225,289.371216 
	C320.283386,289.333435 318.676025,289.166931 317.917511,290.408936 
	C314.865448,295.406555 311.741241,300.390961 309.499329,306.107330 
	C334.259827,311.715942 359.019806,313.037842 383.092224,320.046387 
	C378.387604,304.840363 368.982880,294.848389 352.935669,290.454773 
M472.657135,439.521179 
	C472.647949,436.201324 472.673309,432.880890 472.618317,429.561798 
	C472.576965,427.068420 471.768738,425.326508 468.738647,425.830994 
	C460.897491,427.136505 453.042267,428.358612 445.206360,429.694214 
	C442.570587,430.143494 441.281494,431.702393 441.324493,434.559601 
	C441.436829,442.027679 441.428131,449.499512 441.326477,456.967926 
	C441.281921,460.239655 442.808167,460.937500 445.706573,460.431793 
	C453.371613,459.094513 461.049408,457.824524 468.738525,456.633789 
	C471.534027,456.200897 472.768433,454.821625 472.678253,451.963593 
	C472.557861,448.149567 472.653564,444.328766 472.657135,439.521179 
M335.610718,328.176758 
	C327.279053,326.754364 318.949280,325.320587 310.614288,323.917847 
	C308.624664,323.583038 306.129272,322.160187 305.454163,325.582275 
	C304.817352,328.810150 306.233185,330.218445 309.609497,330.866119 
	C329.480621,334.678040 349.289764,338.812012 369.150146,342.681549 
	C373.061218,343.443573 376.936951,345.374390 381.631561,343.983612 
	C379.067566,337.335236 373.831818,334.658905 367.865356,333.511475 
	C357.451172,331.508606 346.943054,329.994049 335.610718,328.176758 
M450.632843,335.911194 
	C459.599243,334.164581 468.549347,332.327057 477.540436,330.718475 
	C480.896240,330.118073 480.871643,327.884979 480.543152,325.511261 
	C480.157684,322.726227 478.084930,323.479919 476.279510,323.776978 
	C466.771851,325.341370 457.257629,326.865997 447.752563,328.445831 
	C438.085968,330.052521 428.409729,331.611084 418.771484,333.375183 
	C412.397186,334.541870 407.160980,337.421356 404.208130,344.116455 
	C405.551453,344.371460 406.225677,344.696747 406.814484,344.582336 
	C421.152985,341.797485 435.482361,338.965759 450.632843,335.911194 
M100.549416,361.357666 
	C87.964447,361.573639 89.456802,359.082611 89.333191,372.888000 
	C89.308006,375.701233 90.518509,376.723694 93.237534,376.679413 
	C98.889221,376.587341 104.544792,376.736389 110.196579,376.647339 
	C121.827972,376.464050 120.555008,378.761383 120.683968,365.385162 
	C120.713539,362.317780 119.431221,361.270660 116.499313,361.341919 
	C111.514229,361.463043 106.523819,361.365356 100.549416,361.357666 
M270.535400,341.077332 
	C273.891907,334.829620 277.248413,328.581879 281.037170,321.529572 
	C270.003418,321.346466 260.023132,321.055756 249.857025,321.680542 
	C251.451904,327.003693 262.130341,346.366241 265.369232,349.913727 
	C267.006531,347.108246 268.582855,344.407166 270.535400,341.077332 
M426.628204,470.755524 
	C421.556671,470.855499 416.723358,471.960968 411.798920,473.688812 
	C417.472473,481.586243 426.744995,482.716827 432.591614,476.932739 
	C430.809998,474.997559 429.027191,473.061096 426.628204,470.755524 
z"/>
<path fill="#000000" opacity="1.000000" stroke="none" 
	d="
M288.199402,184.725876 
	C282.878815,196.889313 273.743011,202.476898 261.690369,201.263901 
	C252.084686,200.297180 243.668106,192.613388 241.223083,182.578644 
	C239.998947,177.554596 240.610977,176.764587 245.867584,176.670990 
	C247.866745,176.635376 249.875748,176.778900 251.864685,176.631119 
	C254.941757,176.402512 256.934784,177.197678 258.595123,180.269745 
	C261.640442,185.904510 268.456604,185.960983 271.308502,180.362320 
	C272.916840,177.204971 274.868713,176.387329 277.959412,176.638489 
	C279.449341,176.759537 280.957306,176.654617 282.457123,176.658112 
	C289.974762,176.675583 290.312775,177.119705 288.199402,184.725876 
z"/>
<path fill="#000000" opacity="1.000000" stroke="none" 
	d="
M312.013245,143.453369 
	C314.417328,150.423767 312.908722,155.946869 307.986053,159.204193 
	C303.261322,162.330612 297.490479,162.075623 293.203156,158.551025 
	C288.855835,154.977112 287.371765,148.778107 289.766479,143.719727 
	C291.775146,139.476761 295.258698,137.165390 299.881439,136.719711 
	C305.221069,136.204895 309.153778,138.522919 312.013245,143.453369 
z"/>
<path fill="#000000" opacity="1.000000" stroke="none" 
	d="
M230.671051,161.245667 
	C223.223053,161.145752 218.748199,158.084763 217.056778,152.250458 
	C215.541260,147.022888 217.791504,141.312073 222.478912,138.489960 
	C227.345871,135.559769 233.211655,135.978256 237.220215,139.729599 
	C245.453430,147.434494 240.617722,159.880264 230.671051,161.245667 
z"/>
</svg>