<svg version="1.1" id="Layer_1" xmlns="http://www.w3.org/2000/svg" xmlns:xlink="http://www.w3.org/1999/xlink" x="0px" y="0px"
	 width="100%" viewBox="0 0 512 512" enable-background="new 0 0 512 512" xml:space="preserve">
<path fill="#000000" opacity="1.000000" stroke="none" 
	d="
M79.468658,513.000000 
	C77.725899,512.233948 76.453903,511.464386 75.177330,510.702484 
	C68.329926,506.615692 64.714577,500.619507 64.681381,492.614502 
	C64.630951,480.454742 64.600159,468.293976 64.718300,456.135162 
	C64.746498,453.232574 64.062271,451.135132 61.569820,449.356323 
	C58.128021,446.900055 56.536160,443.351776 56.596554,438.995270 
	C56.711990,430.668152 56.690403,422.338104 56.627083,414.010010 
	C56.594124,409.674744 58.180073,406.092346 61.713680,403.725250 
	C64.155624,402.089386 64.640579,400.083527 64.712021,397.406830 
	C65.018051,385.941376 63.470196,374.379211 65.714836,363.020660 
	C70.962608,336.465393 85.592018,317.134430 110.975288,306.962616 
	C142.027267,294.519257 173.275970,282.565887 204.470688,270.480865 
	C207.518555,269.300079 208.672272,267.572296 208.906433,264.219177 
	C209.521927,255.404922 207.973038,248.497375 200.415619,242.075760 
	C188.335159,231.810913 181.598038,217.691315 178.569122,202.039047 
	C177.808807,198.109985 176.370728,196.039841 171.876236,194.980438 
	C149.100586,189.611938 136.947922,166.244873 146.978699,144.908783 
	C148.036835,142.658096 147.776917,141.173080 146.510178,139.036118 
	C140.823914,129.443604 141.699249,119.230438 144.893646,109.178246 
	C146.396103,104.450317 150.544510,101.556999 155.330307,100.764069 
	C159.900391,100.006882 161.287399,97.540169 161.617599,93.435783 
	C163.230591,73.387199 170.888687,55.823738 183.686615,40.413933 
	C192.109589,30.271915 202.124786,21.930704 214.080811,16.520300 
	C222.736420,12.603418 231.133377,8.692827 237.806274,1.270293 
	C250.020889,1.000000 262.041779,1.000000 274.531342,1.000000 
	C278.387451,3.125780 281.848755,5.180240 283.926270,8.790352 
	C284.862823,10.417756 286.539001,10.771967 288.069061,11.350424 
	C324.031830,24.946516 345.167053,50.817780 351.980835,88.537727 
	C352.245667,90.003540 352.310974,91.516258 352.348694,93.010170 
	C352.455536,97.243805 353.684845,99.968170 358.646179,100.860863 
	C365.918579,102.169403 370.620087,108.201340 371.008179,116.434410 
	C371.388550,124.503273 372.481445,132.870331 367.022614,140.022888 
	C365.765900,141.669510 366.624176,143.202454 367.263123,144.718933 
	C378.277618,170.860703 359.819946,192.408356 340.207977,195.425613 
	C337.802521,195.795685 336.545563,196.937576 336.079529,199.558273 
	C332.585052,219.209732 322.929108,235.319168 307.552155,247.971436 
	C305.251312,249.864594 305.110535,252.138596 305.181519,254.666794 
	C305.682220,272.499451 302.039093,267.507538 318.598328,274.081451 
	C347.529205,285.566864 376.841858,296.117371 405.567902,308.083832 
	C429.918549,318.227600 443.266815,337.869720 448.261444,363.379700 
	C450.454681,374.581635 449.056519,385.968140 449.296936,397.268951 
	C449.357758,400.125946 449.842316,402.218903 452.493866,403.964752 
	C455.855774,406.178345 457.390259,409.689423 457.362488,413.840668 
	C457.305573,422.337067 457.282471,430.834808 457.370575,439.330688 
	C457.413910,443.512329 455.834564,446.912170 452.494080,449.195648 
	C449.951385,450.933777 449.259735,452.996948 449.295227,455.914368 
	C449.426971,466.742035 448.979614,477.587952 449.443756,488.397217 
	C449.926819,499.647736 445.834259,507.779205 435.247986,512.772461 
	C404.645782,513.000000 374.291534,513.000000 343.226685,512.747925 
	C339.419769,509.747406 337.572876,506.570923 339.395142,502.355591 
	C341.223755,498.125580 344.881470,497.537415 348.956207,497.624146 
	C354.284363,497.737579 359.616760,497.650848 364.947357,497.648285 
	C372.937469,497.644470 372.955658,497.643768 372.960602,489.826233 
	C372.984802,451.512726 372.982452,413.199158 373.047302,374.885742 
	C373.052338,371.904602 373.257507,368.877808 373.812073,365.956238 
	C374.391815,362.902252 376.629120,361.144531 379.653473,360.495300 
	C382.478790,359.888733 384.977722,360.624023 386.928741,362.734741 
	C388.836823,364.798981 389.346619,367.368286 389.329681,370.142151 
	C389.276672,378.804016 389.408905,387.467834 389.273590,396.127869 
	C389.222046,399.428009 390.155823,400.991516 393.776764,400.945557 
	C405.602081,400.795380 417.430725,400.843353 429.257477,400.918182 
	C432.402130,400.938080 433.799194,399.782257 433.677582,396.501434 
	C433.320465,386.864838 434.372559,377.183350 432.710693,367.586731 
	C429.104370,346.761536 418.335175,330.983826 398.738892,322.623657 
	C379.614319,314.464691 359.961304,307.549377 340.606750,299.919525 
	C337.727997,298.784698 335.755798,299.065674 333.413879,301.038574 
	C322.716705,310.050293 311.856873,318.868683 301.114502,327.827271 
	C297.361481,330.957092 293.104401,333.250916 288.323517,332.115295 
	C284.158447,331.125977 282.687561,333.222198 280.858459,335.984497 
	C278.813019,339.073517 279.265472,342.325500 279.618042,345.632477 
	C280.850403,357.191010 282.119995,368.745697 283.326538,380.306915 
	C285.119537,397.487854 286.860474,414.674194 288.642700,431.856262 
	C290.527222,450.024750 292.655426,468.171509 294.249847,486.365204 
	C295.236603,497.624847 294.879028,497.656219 306.109985,497.653992 
	C306.942902,497.653809 307.777039,497.683289 308.608490,497.648163 
	C312.551117,497.481567 316.591583,497.531586 318.580872,501.663544 
	C320.632629,505.925232 319.203003,509.750946 316.000000,513.000000 
	C237.312439,513.000000 158.624878,513.000000 79.468658,513.000000 
M141.030807,463.500000 
	C141.045883,473.329437 141.117981,483.159332 141.044388,492.988098 
	C141.019455,496.318481 142.200439,497.713501 145.732040,497.696442 
	C168.557205,497.586304 191.383347,497.599823 214.208649,497.697266 
	C217.336121,497.710602 218.600067,496.718903 218.905792,493.505188 
	C220.148315,480.444305 221.641281,467.407318 223.039856,454.361267 
	C224.580078,439.994110 226.133835,425.628418 227.652756,411.259033 
	C229.241699,396.227478 230.821381,381.194824 232.355957,366.157654 
	C233.199432,357.892456 234.123825,349.628723 234.660217,341.341583 
	C234.974487,336.486176 231.247238,331.473419 228.014206,332.064423 
	C221.458481,333.262756 216.385986,330.714172 211.590912,326.664185 
	C201.410431,318.065674 191.082703,309.641571 180.901276,301.044189 
	C178.665863,299.156555 176.629425,298.356537 173.705719,299.520996 
	C154.684296,307.097137 135.510742,314.300446 116.588005,322.112762 
	C97.837822,329.853851 86.541763,344.239929 82.011452,363.840424 
	C79.592949,374.304077 80.504372,385.047638 80.291542,395.691711 
	C80.213623,399.588379 81.524727,401.005188 85.459793,400.938568 
	C96.286339,400.755310 107.118126,400.895416 117.947792,400.877441 
	C124.683556,400.866272 124.687668,400.841705 124.693008,393.881744 
	C124.699265,385.717834 124.613869,377.552734 124.728279,369.390381 
	C124.804855,363.927460 127.588036,360.648071 132.059982,360.304749 
	C136.818649,359.939423 140.051224,362.904266 140.795074,368.546082 
	C141.076553,370.680878 141.032104,372.866699 141.032852,375.029297 
	C141.042999,404.186188 141.034897,433.343109 141.030807,463.500000 
M251.462860,248.815186 
	C258.476868,249.855743 265.389618,249.029144 272.263611,247.644852 
	C297.932007,242.475662 319.904419,216.991608 320.741577,190.930008 
	C321.179993,177.281342 320.867584,163.609787 321.033295,149.950256 
	C321.075226,146.490005 319.743744,145.304291 316.309845,145.310440 
	C276.824463,145.381210 237.338791,145.380859 197.853485,145.282104 
	C194.115768,145.272751 192.895218,146.670441 192.945206,150.280426 
	C193.129776,163.606430 192.821671,176.944443 193.239716,190.260956 
	C194.184280,220.349152 220.497787,247.028870 251.462860,248.815186 
M246.209564,16.507948 
	C244.034470,17.158268 244.297913,18.995825 244.296753,20.615805 
	C244.278870,45.600834 244.310532,70.585930 244.256592,95.570854 
	C244.250412,98.433052 245.128036,99.934433 248.230423,99.883873 
	C254.058533,99.788910 259.891052,99.788551 265.718567,99.905754 
	C268.794006,99.967598 269.839783,98.558533 269.748657,95.655777 
	C269.644257,92.329544 269.570099,88.977570 269.859619,85.669754 
	C270.263062,81.060539 273.387573,77.992401 277.446442,77.755051 
	C281.516754,77.517036 284.806610,80.196396 285.568726,84.909225 
	C286.069397,88.005310 286.195435,91.215950 286.033264,94.351715 
	C285.826630,98.346977 287.137207,100.017624 291.392029,99.953224 
	C304.714355,99.751572 318.044922,99.711960 331.365326,99.969589 
	C336.079285,100.060768 337.180756,98.067833 336.626312,93.969795 
	C332.672363,64.745125 317.791809,43.271896 291.304993,30.039034 
	C289.898712,29.336456 288.446228,28.218128 286.461548,29.354811 
	C286.359772,30.390032 286.167328,31.527622 286.149353,32.667965 
	C286.057373,38.495586 286.308777,44.346638 285.867279,50.145885 
	C285.385193,56.478241 280.580109,59.925598 275.291473,58.048225 
	C271.093933,56.558170 269.776855,53.022457 269.761108,48.886559 
	C269.726227,39.725471 269.579254,30.560587 269.795227,21.404734 
	C269.889221,17.420534 268.442719,16.121103 264.559845,16.298384 
	C258.741516,16.564030 252.903412,16.395803 246.209564,16.507948 
M293.499908,129.649155 
	C312.163940,129.651306 330.828003,129.670563 349.491943,129.627151 
	C351.214081,129.623154 353.677490,130.401871 354.305450,128.139999 
	C355.239136,124.776848 355.493652,121.022705 354.280853,117.815956 
	C353.193024,114.939690 349.844299,116.315994 347.525940,116.313278 
	C287.034637,116.242363 226.543198,116.256332 166.051804,116.258774 
	C164.719055,116.258827 163.384659,116.260605 162.054092,116.325050 
	C161.031174,116.374603 159.869171,116.593597 159.651703,117.719429 
	C158.985138,121.170189 158.570526,124.849617 159.775513,128.066574 
	C160.871643,130.992874 164.205963,129.586746 166.517899,129.591110 
	C208.511780,129.670410 250.505844,129.648773 293.499908,129.649155 
M227.936157,58.500000 
	C227.690414,48.637405 228.429413,38.738205 227.426102,28.512648 
	C225.840576,28.912754 224.834335,28.997614 223.983307,29.405935 
	C196.566879,42.560493 181.351944,64.467941 177.359650,94.435234 
	C176.808594,98.571709 178.446915,100.002602 182.601822,99.944687 
	C195.909760,99.759171 209.223785,99.748947 222.531265,99.949661 
	C226.709122,100.012672 228.036133,98.519524 227.970856,94.438988 
	C227.784637,82.795441 227.923859,71.146698 227.936157,58.500000 
M419.490234,452.298065 
	C410.995575,452.300354 402.499329,452.399384 394.007080,452.256836 
	C390.660980,452.200684 389.215118,453.220795 389.263550,456.809540 
	C389.425385,468.799805 389.418915,480.794708 389.273285,492.785339 
	C389.228455,496.477539 390.584412,497.762512 394.254486,497.702423 
	C404.578491,497.533356 414.907257,497.672638 425.233948,497.637360 
	C431.629272,497.615540 433.567627,495.714600 433.626862,489.289856 
	C433.700592,481.295563 433.648132,473.300079 433.647980,465.305115 
	C433.647705,452.301025 433.646942,452.301025 419.490234,452.298065 
M124.689430,471.500732 
	C124.684036,466.338745 124.632782,461.176178 124.693336,456.014984 
	C124.722038,453.567627 123.826843,452.298676 121.216042,452.308105 
	C108.727646,452.353149 96.238998,452.342773 83.750465,452.329132 
	C81.510735,452.326660 80.359367,453.271759 80.365021,455.607056 
	C80.393646,467.429413 80.265137,479.253815 80.457535,491.073181 
	C80.522415,495.059601 82.812904,497.608856 87.109383,497.621887 
	C98.265892,497.655731 109.422958,497.584839 120.578896,497.671753 
	C123.604042,497.695343 124.723701,496.427734 124.686226,493.480865 
	C124.597290,486.488525 124.677361,479.494019 124.689430,471.500732 
M252.874786,290.738861 
	C261.579437,292.139374 268.728363,289.439484 274.687927,282.930756 
	C277.028168,280.374878 279.752930,277.986847 282.720520,276.227234 
	C289.253510,272.353607 289.543304,266.696960 288.093506,259.587402 
	C267.417053,267.515991 246.744247,267.104858 225.942520,259.495575 
	C224.648392,266.084656 224.465088,271.320984 230.401566,275.455505 
	C235.982773,279.342621 241.007797,284.046722 246.144897,288.542847 
	C247.900665,290.079529 249.693161,290.929688 252.874786,290.738861 
M124.682594,431.187378 
	C124.682602,428.027191 124.560455,424.860962 124.717033,421.708557 
	C124.873322,418.561951 123.735748,417.206787 120.428528,417.231903 
	C105.792747,417.342957 91.155571,417.324036 76.519257,417.263794 
	C73.642326,417.251953 72.168999,418.174347 72.304741,421.286987 
	C72.456772,424.773163 72.443047,428.275085 72.307762,431.762634 
	C72.192963,434.722046 73.382980,435.992981 76.378929,435.982025 
	C91.181572,435.927795 105.984589,435.943329 120.787346,435.982452 
	C123.495773,435.989594 124.834106,434.846497 124.682594,431.187378 
M413.500061,417.268585 
	C409.840515,417.269104 406.181000,417.270508 402.521454,417.270020 
	C389.086334,417.268219 389.248749,417.268280 389.222931,430.690491 
	C389.214691,434.968781 390.802185,436.104950 394.781799,436.039307 
	C405.757355,435.858246 416.737915,435.985077 427.716522,435.986237 
	C442.157959,435.987732 442.041565,435.988617 441.733673,421.721985 
	C441.655762,418.111237 440.257507,417.151703 436.955383,417.216583 
	C429.472809,417.363708 421.985474,417.266876 413.500061,417.268585 
M268.184662,493.366577 
	C269.533081,494.600586 270.688202,496.348724 272.276123,496.945831 
	C274.551819,497.801605 278.238922,499.235565 278.594604,495.212799 
	C279.099823,489.498322 279.042816,483.750885 274.130646,479.060944 
	C263.893890,469.287292 254.054901,459.097473 244.016907,449.114441 
	C243.142258,448.244537 242.477814,446.840149 240.765701,447.156158 
	C239.136292,450.403320 239.944092,454.092590 238.996872,457.351257 
	C237.660431,461.949066 239.428192,464.773193 242.571014,467.799347 
	C251.087326,475.999603 259.332275,484.481689 268.184662,493.366577 
M196.084869,291.668884 
	C203.578339,300.407196 213.310608,306.560211 221.929855,313.998230 
	C223.694550,315.521088 224.993698,314.173004 226.003967,312.700439 
	C228.170776,309.542175 230.232498,306.308899 232.478958,303.209045 
	C234.237091,300.783020 233.672791,299.026337 231.483856,297.256622 
	C226.822098,293.487671 222.243774,289.614807 217.660355,285.750000 
	C215.980362,284.333405 214.178955,283.841614 212.112335,284.711487 
	C206.907043,286.902496 201.398849,288.364258 196.084869,291.668884 
M284.729797,307.778870 
	C286.658264,310.198059 287.740692,313.302032 290.747437,315.389740 
	C299.981079,307.718048 309.124054,300.121643 318.389587,292.423462 
	C305.004333,282.928101 299.324219,283.122742 287.719177,293.091644 
	C287.340668,293.416779 286.953247,293.731689 286.567078,294.047791 
	C279.703979,299.665619 279.703888,299.665497 284.729797,307.778870 
M255.039062,437.460693 
	C261.278564,443.666168 267.518036,449.871674 274.689423,457.003967 
	C274.665344,445.030090 274.341553,434.983582 264.502106,428.374542 
	C262.873322,427.280548 261.610870,425.626465 260.227051,424.185181 
	C255.423279,419.181763 250.640656,414.158020 245.646271,408.928741 
	C241.270248,416.474854 242.123199,424.511230 247.120880,429.541321 
	C249.585800,432.022217 252.062790,434.491119 255.039062,437.460693 
M257.451965,328.747986 
	C264.087067,329.965149 268.568085,327.336670 271.287537,321.230408 
	C273.567200,316.111542 268.693054,313.918457 267.022491,310.455322 
	C264.508331,305.243408 259.481659,307.804749 255.487335,307.104645 
	C247.936111,305.781128 246.259796,312.055023 243.184937,316.478821 
	C240.553665,320.264404 244.260880,322.526031 245.546844,325.332336 
	C247.908157,330.485352 252.648956,328.261353 257.451965,328.747986 
M354.633514,158.758255 
	C352.838776,147.748322 350.039429,145.018677 341.395569,145.290863 
	C338.440643,145.383896 337.192474,146.345200 337.256409,149.378754 
	C337.385925,155.524933 337.193420,161.677994 337.329956,167.823868 
	C337.412689,171.548523 336.653381,175.366516 337.939789,179.023026 
	C347.815704,177.498367 354.278381,169.865372 354.633514,158.758255 
M164.257080,147.595078 
	C159.411285,153.844254 157.589569,160.575745 161.224258,168.046875 
	C164.229462,174.224075 169.143234,177.907928 176.646240,179.647766 
	C176.646240,168.612915 176.656479,158.349625 176.633087,148.086441 
	C176.630219,146.829758 176.097565,145.551315 174.741608,145.554977 
	C171.365845,145.564072 167.726120,144.135941 164.257080,147.595078 
M256.158600,397.341248 
	C260.621857,401.942047 265.085114,406.542816 270.250061,411.866882 
	C269.981384,407.718811 270.144806,404.837769 269.539673,402.128418 
	C268.561218,397.747925 270.258179,392.402588 267.305145,389.042175 
	C261.664825,382.623718 255.036057,377.073883 248.863495,371.207184 
	C244.862915,379.338257 245.991119,387.231720 252.112183,393.319183 
	C253.293427,394.493958 254.479126,395.664307 256.158600,397.341248 
M264.018799,350.357544 
	C263.436981,348.481415 264.471375,345.527771 261.325134,345.288177 
	C257.922485,345.029083 254.329300,344.322083 251.144653,345.994995 
	C249.845428,346.677521 250.268982,348.467102 251.262909,349.492035 
	C255.672394,354.039001 260.162537,358.507721 264.623535,363.004761 
	C264.232513,358.766907 265.088257,354.915283 264.018799,350.357544 
M242.270233,490.249481 
	C240.535385,488.823975 239.426544,486.630524 236.661530,485.763184 
	C235.040466,489.385529 233.783905,493.973694 236.121964,496.451935 
	C238.854797,499.348602 243.687119,497.606049 248.535080,497.163147 
	C246.226151,494.596680 244.491821,492.668915 242.270233,490.249481 
z"/>
</svg>