<svg version="1.1" id="Layer_1" xmlns="http://www.w3.org/2000/svg" xmlns:xlink="http://www.w3.org/1999/xlink" x="0px" y="0px"
	 width="100%" viewBox="0 0 512 512" enable-background="new 0 0 512 512" xml:space="preserve">
<path fill="#000000" opacity="1.000000" stroke="none" 
	d="
M69.444168,513.000000 
	C65.509773,510.331360 64.568527,506.792847 64.598816,502.468719 
	C64.755196,480.142487 64.647972,457.814606 64.684792,435.487335 
	C64.723831,411.808502 78.546722,391.159302 100.850311,382.974609 
	C130.536545,372.080688 160.472107,361.867279 190.262207,351.253876 
	C193.339325,350.157593 197.115784,349.806946 198.805130,346.038330 
	C196.872620,344.824463 195.000397,345.336365 193.244934,345.329315 
	C178.082596,345.268463 162.919891,345.306763 147.757401,345.270111 
	C140.623489,345.252869 138.291595,343.599182 136.279129,336.668304 
	C130.197769,315.724091 126.031837,294.367279 122.640633,272.839905 
	C119.120766,250.495743 116.607033,228.025269 115.093864,205.479828 
	C113.377121,179.901382 111.332253,154.230911 112.932472,128.624161 
	C117.113892,61.712799 167.048141,12.198343 225.935257,2.549105 
	C228.065918,2.199977 230.173553,1.710303 232.645966,1.143064 
	C253.687561,1.000000 274.375122,1.000000 295.531342,1.000000 
	C309.043457,3.687093 322.050903,6.533722 333.979065,12.771855 
	C372.466888,32.900032 394.912140,64.283630 400.412323,107.563080 
	C402.206177,121.678749 401.107391,135.841217 401.259735,149.979492 
	C401.473358,169.802368 401.843628,189.646255 401.210663,209.451248 
	C399.326141,268.416656 371.857147,311.513367 319.685303,338.970764 
	C317.373230,340.187592 313.307465,340.235992 313.704620,343.915985 
	C314.096100,347.543427 317.417206,349.038177 320.731964,350.200592 
	C349.785156,360.388855 378.743683,370.851257 407.865997,380.836517 
	C430.711792,388.669769 444.814880,403.765778 448.823364,427.814087 
	C449.204102,430.098419 449.302979,432.451752 449.307068,434.773438 
	C449.346863,457.430725 449.281616,480.088379 449.398438,502.745148 
	C449.418671,506.667633 448.649384,509.983612 445.223755,512.728760 
	C442.629425,513.000000 440.258881,513.000000 437.267334,512.679993 
	C434.108917,509.608276 433.560791,506.335083 433.578430,502.673340 
	C433.682709,481.019928 433.766052,459.364685 433.587555,437.712250 
	C433.454468,421.567200 427.280670,408.228546 412.679138,400.490814 
	C400.779816,394.184998 387.597443,390.803101 374.785645,386.678375 
	C374.567688,386.608215 374.217834,386.947815 373.315277,387.412354 
	C373.315277,393.045197 373.484985,399.007599 373.252350,404.954193 
	C373.110229,408.587952 374.333527,410.082825 378.013702,411.042511 
	C401.758514,417.234558 417.210541,437.415558 417.311340,461.950745 
	C417.366760,475.442596 417.188263,488.936890 417.399292,502.425659 
	C417.467316,506.775391 416.310547,510.239990 413.000000,513.000000 
	C410.629425,513.000000 408.258881,513.000000 405.260315,512.683472 
	C402.052002,509.634918 401.563477,506.340912 401.511414,502.690857 
	C401.295380,487.543640 402.409790,472.375427 400.831604,457.248688 
	C398.898926,438.723907 382.445312,424.597351 363.645172,425.347992 
	C344.946320,426.094543 329.497314,441.749359 329.318512,460.331299 
	C329.185425,474.161041 329.165710,487.994446 329.342773,501.823059 
	C329.399902,506.284210 328.374542,510.020416 325.000000,513.000000 
	C322.629425,513.000000 320.258881,513.000000 317.256470,512.701965 
	C313.760925,509.481689 312.858826,505.911682 312.881409,501.910370 
	C312.953766,489.095001 312.792603,476.277405 312.953064,463.463562 
	C313.281525,437.234436 327.918976,417.872406 352.863037,410.859253 
	C356.208313,409.918701 357.044647,408.252808 357.010284,405.230042 
	C356.932800,398.407043 356.841156,391.577576 357.058380,384.760437 
	C357.174530,381.114655 355.618561,379.378448 352.293701,378.299652 
	C345.339508,376.043304 338.488556,373.470398 331.582001,371.065369 
	C325.255219,368.862213 325.254303,368.885925 323.595367,375.204102 
	C312.373352,417.944733 301.129608,460.679718 289.958099,503.433563 
	C289.013550,507.048340 287.776123,510.391785 285.000000,513.000000 
	C282.629425,513.000000 280.258881,513.000000 277.245361,512.714111 
	C273.435547,509.392029 272.503265,505.883636 273.689636,501.555634 
	C277.289429,488.423462 280.721130,475.245056 284.183533,462.075531 
	C287.718903,448.628448 291.213165,435.170563 295.008423,420.633392 
	C269.378998,426.917236 244.483170,426.749359 219.087860,420.737122 
	C219.586716,422.827271 219.795029,423.780151 220.041946,424.722992 
	C226.645264,449.936768 233.143112,475.179138 239.951126,500.337555 
	C241.318726,505.391449 240.853699,509.443726 237.000000,513.000000 
	C234.629440,513.000000 232.258896,513.000000 229.235077,512.725098 
	C226.388153,510.485718 225.297058,507.975616 224.563705,505.149689 
	C219.635620,486.159302 214.628860,467.189240 209.626526,448.218201 
	C203.055634,423.298492 196.398529,398.401154 189.959991,373.447357 
	C189.059967,369.959198 187.693344,369.031006 184.411255,370.338531 
	C181.013550,371.692078 177.588196,373.082245 174.050827,373.951111 
	C170.064941,374.930115 168.927048,377.112885 168.960190,381.098480 
	C169.134735,402.087006 169.158096,423.078979 168.942749,444.066772 
	C168.896942,448.530975 170.295593,450.816589 174.455307,452.690338 
	C186.822372,458.261200 192.535934,468.657654 192.844360,481.787628 
	C193.147293,494.683380 184.709045,506.289764 172.532822,511.239777 
	C171.317535,511.733826 170.175842,512.408936 169.000000,513.000000 
	C163.977905,513.000000 158.955811,513.000000 153.207397,512.773560 
	C152.032501,512.327637 151.596939,512.074829 151.133408,511.893555 
	C137.246902,506.463196 128.801498,495.729919 128.782120,482.457611 
	C128.760803,467.844177 135.683014,457.396393 149.197189,451.666779 
	C152.331192,450.338013 152.731476,448.247772 152.722031,445.378143 
	C152.666122,428.391968 152.705948,411.405487 152.712799,394.419128 
	C152.714401,390.457977 152.713043,386.496796 152.713043,382.709076 
	C150.207855,381.832306 148.605591,383.027161 146.935760,383.610138 
	C134.843124,387.831787 122.774391,392.121918 110.700722,396.397766 
	C107.092262,397.675659 103.502457,398.978119 100.213257,401.008636 
	C86.061310,409.744873 80.482582,422.968048 80.420860,438.994507 
	C80.340050,459.977386 80.310875,480.961273 80.445488,501.943512 
	C80.472298,506.122528 79.908180,509.859314 77.000000,513.000000 
	C74.629440,513.000000 72.258888,513.000000 69.444168,513.000000 
M360.176697,208.975021 
	C364.171082,208.894257 368.167114,208.860580 372.159515,208.722534 
	C379.578491,208.466034 384.680206,203.896576 384.921539,197.367828 
	C385.179626,190.385391 381.110596,185.701935 373.363373,185.121017 
	C360.718994,184.172943 351.003723,178.184631 343.107117,168.697632 
	C332.365570,155.792679 326.056122,140.598724 320.687469,124.944023 
	C318.708649,119.173935 316.979736,113.318153 314.948486,106.906990 
	C294.674530,115.886993 273.609344,111.900398 252.986221,113.015419 
	C248.671692,113.248680 244.379654,113.503525 240.085449,114.234459 
	C188.951782,122.938087 153.499863,172.860443 162.163757,224.099655 
	C171.074402,276.798187 218.720367,311.541016 271.501221,303.827209 
	C314.715576,297.511566 348.795074,261.488800 352.641144,217.962112 
	C353.036987,213.482346 354.804443,210.356888 360.176697,208.975021 
M133.010330,225.791840 
	C134.347000,243.028778 136.762375,260.138092 139.516693,277.187469 
	C142.060898,292.936340 145.304840,308.562744 149.339706,324.011749 
	C150.037018,326.681671 150.674500,329.014069 154.361694,328.978027 
	C168.523651,328.839722 182.687866,328.905853 196.851089,328.950317 
	C199.578018,328.958862 200.797211,327.802704 200.751709,325.052765 
	C200.680054,320.721893 200.470322,316.364594 200.839020,312.063049 
	C201.215958,307.665192 199.458099,305.205811 195.806686,302.802399 
	C145.579575,269.741882 129.804977,204.763763 159.979965,152.781296 
	C178.620346,120.669495 206.980911,102.286514 243.995987,97.568886 
	C258.113708,95.769562 272.281555,96.875786 286.423492,96.727875 
	C308.184418,96.500275 322.571014,85.628723 328.250092,64.618820 
	C329.866974,58.637077 333.751862,55.712399 338.473145,56.922501 
	C343.200928,58.134274 345.228149,62.526192 343.870728,68.643867 
	C341.848755,77.756821 337.844330,85.893860 331.845917,93.049759 
	C330.453735,94.710579 329.212524,96.216240 329.854065,98.818840 
	C334.457458,117.494118 340.770355,135.409027 350.616150,152.108902 
	C358.533813,165.538391 370.555237,170.031204 385.092163,170.341431 
	C385.092163,164.069534 385.207062,157.769211 385.069580,151.474380 
	C384.724457,135.672974 386.074310,119.824089 383.780884,104.076088 
	C377.588104,61.553097 342.495483,25.738514 299.946014,18.268131 
	C284.222839,15.507627 268.397888,16.532780 252.603912,16.390596 
	C221.392563,16.109623 193.512329,25.561285 170.039093,46.317070 
	C145.078064,68.388420 130.881042,96.151077 129.317474,129.654999 
	C128.276794,151.954529 129.296829,174.284500 130.438721,196.574677 
	C130.923111,206.030029 132.009949,215.454514 133.010330,225.791840 
M296.871521,324.563477 
	C296.576141,321.348907 297.511566,317.995544 295.797760,314.288666 
	C269.868988,323.467682 243.951462,323.460754 218.464111,314.353333 
	C216.697647,316.513702 217.178772,318.418152 217.161438,320.188629 
	C217.097885,326.681854 217.279083,333.180084 217.098465,339.668915 
	C216.856873,348.347443 214.359055,356.082855 206.808594,361.316223 
	C204.555344,362.878021 204.131744,364.659180 204.874969,367.319214 
	C207.735245,377.556183 210.486038,387.828339 212.997055,398.155579 
	C213.770905,401.338287 215.333603,402.903168 218.421310,403.773682 
	C244.192474,411.039215 269.917206,411.006500 295.681183,403.740173 
	C298.791351,402.863007 300.275726,401.185242 301.034973,398.040253 
	C303.491089,387.866241 306.123444,377.729187 308.980743,367.660980 
	C309.854462,364.582245 309.287628,362.753876 306.717010,360.907379 
	C301.475067,357.141907 298.651672,351.856598 297.541840,345.475677 
	C296.387451,338.838593 297.152893,332.184326 296.871521,324.563477 
M340.593536,306.080292 
	C365.687256,283.966705 380.381134,256.454346 384.399048,222.729752 
	C381.574280,223.370682 379.491547,223.922745 377.377747,224.300537 
	C375.251526,224.680542 373.101685,224.995499 370.948792,225.141464 
	C368.441101,225.311508 367.709290,226.760269 367.270813,229.007233 
	C360.980438,261.243073 343.973511,286.253448 316.408417,304.089813 
	C314.987457,305.009216 313.436432,305.869049 313.394867,307.777069 
	C313.284393,312.848969 312.924377,317.943207 313.763062,323.769745 
	C323.691650,318.880493 332.180420,313.194824 340.593536,306.080292 
M166.702271,466.640442 
	C165.751862,466.345825 164.815155,465.992737 163.848801,465.766144 
	C157.940750,464.381042 150.992111,467.342682 147.460373,472.722260 
	C144.133255,477.790283 144.252869,485.588593 147.734604,490.599976 
	C151.387024,495.857056 158.345078,498.540833 164.281937,496.982452 
	C171.094696,495.194122 175.945740,490.048096 176.593140,483.580048 
	C177.353287,475.985748 174.274399,470.387543 166.702271,466.640442 
z"/>
<path fill="#000000" opacity="1.000000" stroke="none" 
	d="
M229.718872,249.314102 
	C226.706909,246.930725 224.568817,244.385712 225.050491,240.660095 
	C225.836929,234.577209 232.587524,231.966553 238.081909,235.606567 
	C250.635574,243.923325 263.179260,243.942032 275.753937,235.700974 
	C280.137360,232.828217 284.536530,233.248230 287.313660,236.837814 
	C290.137573,240.487885 289.537750,244.720490 285.525574,248.305038 
	C280.149017,253.108566 273.678864,255.737518 266.661591,256.720612 
	C253.671219,258.540466 241.097809,257.684174 229.718872,249.314102 
z"/>
<path fill="#000000" opacity="1.000000" stroke="none" 
	d="
M216.342865,168.849365 
	C211.253189,168.917374 206.586929,169.149185 201.949463,168.881638 
	C196.292755,168.555313 192.634857,164.854309 192.916534,160.275009 
	C193.190308,155.824112 196.838242,152.873062 202.438599,152.742264 
	C206.592606,152.645218 210.751312,152.671417 214.906693,152.730270 
	C220.816223,152.813950 224.085327,155.225830 224.712967,159.849289 
	C225.331009,164.402069 222.694122,167.374191 216.342865,168.849365 
z"/>
<path fill="#000000" opacity="1.000000" stroke="none" 
	d="
M314.316772,152.934570 
	C319.091675,154.432938 321.586517,157.447830 320.898773,161.981339 
	C320.206390,166.545822 316.726929,168.658203 312.310577,168.824005 
	C307.337616,169.010681 302.329315,169.146606 297.377655,168.766586 
	C292.151337,168.365555 289.050995,164.897079 289.169128,160.461258 
	C289.286255,156.061630 292.613861,152.968246 297.947266,152.792282 
	C303.255463,152.617188 308.576019,152.816788 314.316772,152.934570 
z"/>
<path fill="#000000" opacity="1.000000" stroke="none" 
	d="
M298.767456,180.943115 
	C301.666809,177.790466 304.731171,176.842941 308.414062,178.521896 
	C311.890778,180.106873 313.072754,183.078720 313.200745,186.576019 
	C313.297394,189.216812 313.463562,191.935852 312.969177,194.498611 
	C312.221069,198.377090 309.990845,201.163971 305.605957,201.280899 
	C301.145386,201.399841 298.389496,199.167130 297.473755,194.854874 
	C296.496002,190.250336 296.355591,185.657364 298.767456,180.943115 
z"/>
<path fill="#000000" opacity="1.000000" stroke="none" 
	d="
M216.587555,195.092712 
	C215.114075,200.099411 211.829132,201.915619 207.353806,201.156357 
	C202.933746,200.406494 201.139297,197.050064 200.858521,192.898880 
	C200.680389,190.265472 200.602966,187.563354 200.988937,184.967682 
	C201.618027,180.737000 204.188660,177.957855 208.586319,177.781281 
	C212.973709,177.605087 215.694260,180.020905 216.644669,184.339386 
	C217.402710,187.783768 217.350876,191.235046 216.587555,195.092712 
z"/>
</svg>