<svg version="1.1" id="Layer_1" xmlns="http://www.w3.org/2000/svg" xmlns:xlink="http://www.w3.org/1999/xlink" x="0px" y="0px"
	 width="100%" viewBox="0 0 512 512" enable-background="new 0 0 512 512" xml:space="preserve">
<path fill="#000000" opacity="1.000000" stroke="none" 
	d="
M250.395340,293.729889 
	C266.346710,293.728455 281.860291,294.158264 297.338684,293.604492 
	C312.919281,293.047058 317.580292,304.037048 312.569244,316.935089 
	C311.563232,319.524536 309.677094,321.770386 308.209808,324.182648 
	C304.380829,330.477386 305.621521,338.636322 311.098938,343.230743 
	C316.305389,347.597931 323.686371,347.640503 329.040619,343.334259 
	C334.939606,338.589905 336.403412,331.101562 332.363647,324.550842 
	C329.644897,320.142273 326.794281,315.913177 325.951263,310.618286 
	C324.448578,301.180115 330.032043,293.979858 339.609192,293.789246 
	C350.436981,293.573730 361.272308,293.702118 372.104187,293.737091 
	C381.089722,293.766113 383.815582,297.298279 381.813904,305.979126 
	C377.522491,324.589844 370.299225,342.095856 361.990570,359.211212 
	C355.016724,373.576813 347.422058,387.681854 343.785797,403.440125 
	C340.830170,416.248871 340.779602,429.144196 341.977081,442.140106 
	C342.602570,448.928131 342.667145,455.771637 343.401215,462.545013 
	C344.723328,474.744659 335.630737,480.703522 325.514771,480.527069 
	C297.526703,480.038910 269.524414,480.368164 241.527740,480.370758 
	C231.028992,480.371735 220.530121,480.392273 210.031525,480.350220 
	C200.026855,480.310150 194.699417,475.294769 193.526947,465.499786 
	C192.830627,459.682709 192.711838,453.874146 192.660034,448.046112 
	C192.631897,444.882751 192.162460,441.821320 191.136139,438.442505 
	C177.553558,440.607880 164.321930,442.944214 151.019257,444.759766 
	C141.861603,446.009644 132.885406,448.946045 123.378700,447.385132 
	C108.029800,444.864960 96.403717,429.467712 98.432495,413.962952 
	C99.531631,405.562866 100.536591,397.150269 101.546112,388.738770 
	C101.950371,385.370453 101.666267,382.134613 99.883499,379.082275 
	C98.452988,376.633057 97.329758,374.024475 97.649155,371.032440 
	C97.755463,370.036652 97.691147,368.907898 96.769981,368.301025 
	C91.686958,364.952545 89.917297,359.374939 87.590302,354.294342 
	C85.476601,349.679474 82.350372,346.411835 78.056770,343.829437 
	C70.921928,339.538177 63.923069,335.012146 56.973129,330.424133 
	C44.707359,322.326843 43.008789,308.166321 52.946770,297.467163 
	C66.101250,283.305115 79.069962,268.961945 92.518303,255.084061 
	C103.482445,243.769745 108.668854,230.153351 110.714333,214.919464 
	C112.725998,199.937424 113.932457,184.690399 120.942154,170.932648 
	C131.791016,149.639877 149.087173,134.812988 170.031296,124.146942 
	C190.835892,113.551949 213.054443,108.399071 236.467178,108.646271 
	C244.441010,108.730469 246.333405,110.607986 246.337357,118.774345 
	C246.349365,143.604721 246.331329,168.435120 246.375290,193.265427 
	C246.378723,195.201309 245.821991,197.256485 247.081406,199.168030 
	C249.782516,200.051300 251.388992,197.970306 253.217697,196.748520 
	C271.012482,184.859314 293.845001,193.680603 298.431976,214.257401 
	C300.961456,225.604370 296.368622,237.232147 286.689911,243.984985 
	C277.097473,250.677628 264.467773,250.924026 254.669525,244.654099 
	C252.337860,243.162048 250.331482,240.968109 247.288010,240.922195 
	C245.912430,241.974258 246.378876,243.420746 246.375610,244.674484 
	C246.337341,259.339294 246.353241,274.004242 246.342285,288.669159 
	C246.340378,291.231110 246.058060,293.950958 250.395340,293.729889 
M231.783936,282.464905 
	C231.795578,268.470154 231.673904,254.473572 231.862335,240.481186 
	C232.005127,229.877121 239.179001,224.235214 249.372284,226.173172 
	C253.903915,227.034729 257.798584,229.040512 261.531982,231.674438 
	C268.156891,236.348404 275.572296,235.487915 280.886719,229.676056 
	C285.785126,224.319153 285.903381,216.436142 281.166992,210.992096 
	C276.302521,205.400803 268.289642,204.440872 261.690063,208.663193 
	C260.007507,209.739670 258.428436,211.028763 256.640137,211.880859 
	C244.222946,217.797531 231.223572,214.336517 231.656479,197.116119 
	C232.221558,174.638474 231.786606,152.135559 231.773285,129.643524 
	C231.769531,123.283745 231.246399,122.752373 224.914658,123.433060 
	C211.799240,124.843010 198.886200,127.311462 186.706024,132.512009 
	C152.336761,147.186600 128.711548,170.143448 126.022507,209.962463 
	C125.175072,222.511246 122.526314,234.939102 116.671516,246.477829 
	C110.655754,258.333771 101.074081,267.139221 92.265663,276.648865 
	C87.368614,281.935730 82.533104,287.279572 77.056793,293.268158 
	C97.893585,293.268158 117.552422,293.268158 137.379471,293.268158 
	C137.585068,289.796936 135.393967,287.977966 134.019135,285.817352 
	C127.446068,275.487488 128.111984,262.088257 135.746094,252.120285 
	C142.880035,242.805420 155.070618,239.031662 166.638123,242.557236 
	C185.967682,248.448563 193.270859,270.286957 181.643402,287.365387 
	C180.559814,288.956970 178.577316,290.529907 179.755493,292.643860 
	C180.813416,294.542053 183.095596,293.670929 184.830856,293.680878 
	C196.992844,293.750305 209.155884,293.787628 221.317627,293.701508 
	C233.188293,293.617432 231.617203,295.291870 231.783936,282.464905 
M170.747910,262.943512 
	C165.945618,256.355835 159.584244,254.162766 153.033325,256.836426 
	C146.725006,259.411072 143.464813,265.363342 144.281509,272.599518 
	C144.699265,276.300873 147.259293,278.837372 148.994522,281.831818 
	C152.678986,288.190063 154.300415,294.900757 150.861725,301.785248 
	C147.545929,308.423676 141.193695,308.387787 134.844055,308.362518 
	C112.186928,308.272339 89.529175,308.332855 66.871666,308.351105 
	C64.720169,308.352844 62.312202,308.063690 61.528378,310.852417 
	C60.830166,313.336548 61.608032,315.508789 63.620293,317.091003 
	C65.318092,318.425964 67.129578,319.625580 68.947937,320.796295 
	C75.809334,325.213684 82.658623,329.651733 89.583145,333.968628 
	C93.824867,336.613007 97.127945,340.073059 98.961571,344.691986 
	C101.747269,351.709229 105.630791,357.560760 112.860580,360.802582 
	C115.992073,362.206726 118.339249,365.690186 116.673050,368.535645 
	C113.936134,373.209595 115.062347,377.228394 116.097282,381.786804 
	C116.701515,384.448151 116.201462,387.424438 115.874344,390.221130 
	C114.851944,398.962280 113.500626,407.667572 112.606758,416.420441 
	C111.667107,425.621613 121.510475,434.806091 130.656555,433.361633 
	C149.852722,430.329956 169.037643,427.224213 188.208389,424.035767 
	C197.814087,422.438171 205.656631,428.741760 206.439972,438.405457 
	C207.019302,445.552460 207.369919,452.686981 207.388077,459.848114 
	C207.398788,464.071350 209.037338,466.302948 213.744629,465.885468 
	C217.877838,465.518890 222.087479,465.537781 226.227631,465.854065 
	C230.737640,466.198608 231.902115,464.325714 231.856964,460.060883 
	C231.671753,442.569977 231.804352,425.075897 231.764053,407.583069 
	C231.760437,406.011841 232.322311,404.221893 230.662537,402.824432 
	C228.582047,402.854889 227.069321,404.190857 225.438278,405.303558 
	C219.626556,409.268250 213.214294,411.561646 206.163376,410.909485 
	C193.068497,409.698273 183.442917,401.342377 180.178894,388.818420 
	C177.280823,377.698578 181.745865,365.480652 191.172379,358.736359 
	C201.784927,351.143494 214.096405,351.086060 225.219406,358.552155 
	C226.963409,359.722778 228.536102,361.374268 230.914520,360.997284 
	C232.160843,359.657166 231.746979,358.081024 231.751694,356.643707 
	C231.798676,342.316284 231.677872,327.987122 231.875931,313.662170 
	C231.933182,309.521271 230.535950,308.195953 226.406067,308.248810 
	C211.081451,308.445160 195.728775,307.795593 180.433243,308.490021 
	C168.240265,309.043579 161.084488,300.720215 164.949341,287.911591 
	C165.823715,285.013855 167.147751,282.358795 169.020584,279.957123 
	C172.934982,274.937347 173.932419,269.507935 170.747910,262.943512 
M298.354767,312.852081 
	C300.710571,309.118469 298.921967,308.284882 295.354248,308.300964 
	C280.860077,308.366364 266.362854,308.482483 251.872421,308.241821 
	C247.411682,308.167725 246.201492,309.668762 246.260056,313.996735 
	C246.480957,330.320831 246.398972,346.649994 246.316849,362.976715 
	C246.275589,371.179138 240.993042,376.237732 232.774994,376.336823 
	C227.205643,376.403961 222.389206,374.433044 217.957153,371.218231 
	C214.513794,368.720551 210.806961,366.857574 206.366333,367.763702 
	C200.355606,368.990234 195.906555,372.177368 194.411469,378.395020 
	C192.944885,384.494141 195.352432,390.541321 200.199951,393.781982 
	C205.591660,397.386444 211.228348,397.332855 216.955795,393.406219 
	C220.138611,391.224213 223.380463,389.292084 227.157013,388.294312 
	C238.654388,385.256622 246.334396,391.023865 246.342697,402.801056 
	C246.356339,422.127045 246.382996,441.453125 246.312943,460.778870 
	C246.301865,463.834076 246.668274,465.880768 250.523193,465.864441 
	C275.179962,465.760101 299.837341,465.766907 324.494354,465.823029 
	C327.746857,465.830414 329.016266,464.567078 328.744019,461.338470 
	C328.171326,454.546204 327.783661,447.738495 327.236755,440.943817 
	C326.190338,427.943085 326.401062,415.028778 329.198853,402.210175 
	C333.222412,383.775269 341.919464,367.250031 350.038147,350.476196 
	C355.920258,338.323364 361.219208,325.933289 364.966034,312.927368 
	C365.530060,310.969513 366.531281,308.565094 363.289978,308.465393 
	C355.881256,308.237518 348.460754,308.393372 340.727386,308.393372 
	C341.125763,312.734619 343.850769,315.005981 345.371460,317.863922 
	C350.973785,328.392639 350.754669,338.852600 343.861145,348.501251 
	C336.936188,358.193939 327.273621,362.539032 315.164093,360.480408 
	C293.602356,356.814941 283.930725,331.136780 298.354767,312.852081 
z"/>
<path fill="#000000" opacity="1.000000" stroke="none" 
	d="
M382.307251,46.575638 
	C406.604462,56.802032 427.258820,71.291260 442.945038,92.250244 
	C456.308929,110.106300 464.076080,130.207626 466.370667,152.422440 
	C468.854462,176.468674 466.751038,200.245361 462.300568,223.888443 
	C460.794525,231.889313 459.050995,233.312164 450.984894,233.328232 
	C440.694519,233.348709 430.404083,233.333206 420.383331,233.333206 
	C418.848206,236.302078 420.781158,237.649185 421.845032,239.180527 
	C435.432465,258.738495 424.863922,283.336304 401.265961,285.927948 
	C390.014954,287.163635 380.737762,282.323456 374.712799,272.440765 
	C368.184845,261.733093 368.607483,251.001205 375.307037,240.456909 
	C376.518524,238.550156 378.521912,237.005295 378.227173,234.338043 
	C376.708374,232.724457 374.756012,233.381195 373.023804,233.375473 
	C355.695587,233.318161 338.367096,233.352417 321.038727,233.325455 
	C313.454926,233.313660 310.788696,230.719574 310.770691,223.168442 
	C310.726624,204.673813 310.756165,186.179016 310.768982,167.684280 
	C310.778625,153.742584 319.276978,147.740753 332.506714,152.253906 
	C335.564331,153.296997 338.061981,155.230728 340.732544,156.917191 
	C347.706482,161.321289 354.899261,160.371857 360.061523,154.438171 
	C364.781677,149.012665 364.686707,141.261200 359.832520,135.745895 
	C355.145111,130.420074 347.220642,129.463806 340.772736,133.679581 
	C336.124664,136.718582 331.521942,139.449387 325.655518,139.448334 
	C315.881134,139.446579 310.821350,134.739670 310.782562,124.849083 
	C310.708679,106.021416 310.766632,87.193230 310.768799,68.365265 
	C310.769775,59.867691 310.696167,51.369320 310.790588,42.872799 
	C310.866516,36.042358 313.373627,33.603100 320.265594,33.681168 
	C341.648590,33.923382 362.154297,38.476460 382.307251,46.575638 
M325.341919,117.315681 
	C325.727966,119.664658 324.446381,122.295799 326.417999,124.406479 
	C329.251251,124.380791 331.035736,122.489334 333.141357,121.205711 
	C343.244690,115.046562 353.653992,114.623482 363.892731,120.523605 
	C374.097473,126.404129 378.913330,135.969040 377.913269,147.349731 
	C375.888733,170.389404 351.629425,181.453125 332.212769,168.721588 
	C330.337860,167.492203 328.677399,165.624359 326.049286,166.021317 
	C324.838715,167.748383 325.368927,169.636520 325.362885,171.400253 
	C325.316071,185.058228 325.559021,198.721512 325.237183,212.371948 
	C325.119141,217.378235 326.486969,219.015869 331.637482,218.907074 
	C347.121094,218.580002 362.615906,218.729568 378.106018,218.784882 
	C389.602112,218.825943 395.457428,226.438690 392.862885,237.640381 
	C391.938477,241.631409 389.956543,245.015945 387.699646,248.349838 
	C385.531342,251.552780 383.880798,255.015961 384.722076,259.086151 
	C386.096161,265.734314 390.632202,270.542328 396.899750,271.431335 
	C402.661987,272.248627 407.466309,270.044312 410.726074,265.261963 
	C414.478394,259.756958 414.485779,254.059296 410.549500,248.516724 
	C408.124268,245.101822 406.072296,241.510025 405.118958,237.370255 
	C402.609680,226.473724 408.505127,218.897385 419.699005,218.782837 
	C427.193542,218.706131 434.707336,218.455002 442.178650,218.878983 
	C447.294067,219.169266 449.368835,217.379211 449.756165,212.332108 
	C450.340149,204.721939 451.819305,197.172440 452.241638,189.559631 
	C453.024719,175.445435 453.620331,161.298019 451.106049,147.251785 
	C445.411530,115.439331 428.177948,91.301598 401.743652,73.402122 
	C380.039062,58.705257 355.789948,51.178341 329.888153,48.417202 
	C325.722321,47.973122 325.284210,50.054913 325.298523,53.406197 
	C325.388153,74.392731 325.342468,95.379837 325.341919,117.315681 
z"/>
</svg>