<svg version="1.1" id="Layer_1" xmlns="http://www.w3.org/2000/svg" xmlns:xlink="http://www.w3.org/1999/xlink" x="0px" y="0px"
	 width="100%" viewBox="0 0 512 512" enable-background="new 0 0 512 512" xml:space="preserve">
<path fill="#000000" opacity="1.000000" stroke="none" 
	d="
M121.468658,513.000000 
	C115.696907,507.314819 115.655960,501.542633 120.727867,495.698486 
	C122.250099,493.944489 122.161339,492.415466 120.887634,490.351654 
	C114.745270,480.399200 114.462273,470.240662 119.157646,459.402313 
	C124.769524,446.448364 131.926971,434.945374 143.764679,426.779694 
	C152.076965,421.045898 160.837524,418.692902 170.635300,422.480530 
	C171.407806,422.779144 172.231537,422.958496 173.044464,423.132599 
	C173.349564,423.197968 173.691711,423.090363 174.643005,423.006287 
	C177.336884,416.782349 180.146591,410.290833 182.861664,404.017914 
	C180.804367,401.691193 178.639206,402.322388 176.784058,402.453766 
	C153.202271,404.124237 134.519333,388.963470 129.889908,366.342407 
	C128.790756,360.971558 127.238029,355.694916 125.963577,350.358307 
	C121.429367,331.371735 132.997131,316.445801 152.634903,316.001251 
	C158.463516,315.869293 164.298279,315.895721 170.128189,315.984070 
	C172.780777,316.024261 174.437500,315.020782 175.618469,312.595459 
	C181.636520,300.236206 190.096237,289.849701 201.383179,281.946381 
	C204.591949,279.699585 203.328873,277.424957 202.210297,275.031433 
	C198.344498,266.759430 196.411972,258.178497 196.550323,248.955948 
	C196.750092,235.640518 201.211502,223.968018 210.200058,214.503250 
	C219.054138,205.180069 222.756882,194.520508 222.681320,181.931168 
	C222.517319,154.607803 222.565033,127.282349 222.677979,99.958374 
	C222.869034,53.747837 258.925476,10.921836 304.481995,2.618884 
	C306.442963,2.261488 308.376862,1.755477 310.661682,1.159348 
	C319.687561,1.000000 328.375122,1.000000 337.881592,1.149748 
	C389.334900,9.461216 424.582794,46.425251 427.790222,97.516472 
	C429.550293,125.552475 428.197540,153.805893 427.697388,181.951492 
	C427.481812,194.083466 430.437775,204.448532 438.908966,213.363007 
	C451.912231,227.046753 455.898865,243.430161 452.375427,261.813843 
	C450.852386,269.760254 447.065521,276.864807 443.888794,284.166199 
	C442.315430,287.782379 442.701813,290.038025 445.477814,292.897491 
	C456.386963,304.134552 462.109375,317.867371 462.198792,333.435059 
	C462.460968,379.080597 462.347778,424.728577 462.283051,470.375488 
	C462.268646,480.529358 458.865387,489.545441 452.543304,497.576263 
	C446.154999,505.691193 437.408691,509.815582 428.000000,513.000000 
	C325.979095,513.000000 223.958206,513.000000 121.468658,513.000000 
M277.280762,290.210358 
	C270.508057,286.400848 263.200409,284.162445 255.517166,283.401855 
	C226.457840,280.525055 198.961029,301.413116 190.475632,324.067749 
	C187.864532,331.038940 184.178818,335.260590 176.284958,334.352509 
	C173.651672,334.049591 172.516968,335.164978 172.068268,337.907898 
	C170.071442,350.114594 163.102844,357.619080 150.676468,359.661285 
	C147.975891,360.105133 147.232788,361.316589 148.010696,364.179810 
	C150.892105,374.785797 157.172287,381.899963 168.182648,383.876770 
	C178.403610,385.711823 188.813538,383.934296 199.079102,384.767273 
	C207.016220,385.411316 213.352921,383.513977 218.210724,376.951721 
	C219.973434,374.570557 222.347076,372.614410 224.571823,370.608368 
	C228.793030,366.802094 233.979828,366.640717 237.595642,370.072723 
	C241.342392,373.629120 241.310806,379.065369 237.245789,383.429993 
	C233.614731,387.328674 229.454498,390.760468 226.039017,394.827606 
	C221.284958,400.488770 215.764420,403.543182 208.205902,402.441315 
	C205.879242,402.102142 203.471939,402.325531 202.284637,405.018890 
	C197.450073,415.985718 192.337601,426.842041 187.931305,437.977966 
	C186.709091,441.066803 187.689484,444.592896 191.907196,446.375000 
	C196.583862,448.351013 197.414688,445.071228 198.631454,442.281799 
	C201.026443,436.791290 203.199905,431.204376 205.485184,425.665680 
	C207.797119,420.062378 212.446869,417.490326 217.186203,419.164154 
	C222.345001,420.986084 224.391876,425.882812 222.413589,431.846924 
	C219.735092,439.922180 216.500702,447.780579 212.445206,455.255432 
	C210.650803,458.562714 210.148819,461.377533 211.907898,465.036987 
	C215.172729,471.828949 215.272263,479.164215 213.974030,486.524902 
	C213.467880,489.394623 211.581467,491.974701 211.954559,495.031494 
	C218.567841,496.271729 247.250046,495.856598 250.966522,494.415466 
	C250.755783,493.368378 250.683456,492.208282 250.289658,491.170166 
	C241.602890,468.269135 258.383575,445.718506 279.524841,444.495392 
	C282.232086,444.338776 284.008057,442.935913 285.417175,440.546356 
	C289.610138,433.435852 295.765594,428.967865 304.011780,427.569519 
	C305.931458,427.243988 307.608276,426.585236 307.609711,424.196930 
	C307.614899,415.591522 307.611755,406.986115 307.611755,398.445892 
	C304.744080,397.844391 302.852142,399.164124 300.830627,399.757874 
	C278.722321,406.251465 256.749969,389.952332 256.668732,366.916290 
	C256.621735,353.588470 256.627228,340.260254 256.673218,326.932465 
	C256.697174,319.997040 259.505066,316.891174 266.409241,316.181152 
	C268.885468,315.926544 271.400391,316.010559 273.897766,316.005768 
	C282.971161,315.988403 292.044617,315.998932 301.723206,315.998932 
	C296.536163,304.332916 288.287292,296.465607 277.280762,290.210358 
M357.514099,25.007711 
	C324.843689,12.896340 294.790649,17.522182 268.577362,40.556412 
	C243.652222,62.458744 237.863708,91.368752 240.871948,123.372002 
	C243.934052,122.438400 246.551239,121.297119 249.280777,120.864296 
	C266.220917,118.178085 276.730286,107.599220 283.758240,92.852051 
	C286.187500,87.754463 288.168152,82.427925 290.103668,77.114876 
	C291.700348,72.732079 294.091156,69.290581 299.045990,68.852066 
	C303.838745,68.427895 306.482544,71.626366 308.957520,75.222458 
	C321.619354,93.619904 338.622833,106.219017 359.473022,114.300514 
	C375.617432,120.558083 393.046692,117.762451 409.218994,123.081375 
	C414.098145,81.562042 400.275696,44.280075 357.514099,25.007711 
M383.499878,462.340057 
	C367.835358,462.333801 352.169952,462.235260 336.506836,462.381439 
	C332.193359,462.421661 328.722168,461.112885 325.756714,458.090698 
	C322.605774,454.879486 319.378021,451.743683 316.226807,448.532776 
	C313.407288,445.659882 310.014252,444.612854 306.187256,445.664764 
	C302.387573,446.709259 300.771851,449.479767 300.187744,453.379822 
	C299.267548,459.523956 295.872192,462.134735 289.506744,462.302277 
	C287.841339,462.346100 286.173950,462.310760 284.507568,462.323547 
	C273.476349,462.408234 266.333832,468.749878 266.271027,478.511353 
	C266.206390,488.560394 273.487793,495.613068 284.313690,495.626434 
	C328.807739,495.681488 373.301971,495.707153 417.795898,495.611145 
	C432.758301,495.578827 443.733307,485.348206 443.939758,470.507477 
	C444.312897,443.683350 444.034241,416.850464 444.097565,390.021393 
	C444.105438,386.688965 442.962128,385.108459 439.417603,385.300995 
	C435.596191,385.508636 431.747650,385.487244 427.923706,385.302582 
	C424.123840,385.119110 422.980530,386.208954 423.883698,390.254089 
	C427.065155,404.502930 425.158112,418.305023 417.333954,430.583069 
	C413.029755,437.337494 410.600159,443.835449 411.118866,451.896332 
	C411.551819,458.624847 407.374512,462.186768 400.497314,462.302246 
	C395.166077,462.391785 389.832367,462.333466 383.499878,462.340057 
M342.025146,371.983978 
	C340.534332,356.001984 348.546570,342.150696 363.243164,335.999298 
	C366.563690,334.609467 367.761414,332.858032 367.712097,329.336731 
	C367.537109,316.847961 367.634003,304.355408 367.626984,291.864288 
	C367.625488,289.185455 367.980988,285.957367 364.337830,285.620422 
	C360.395477,285.255737 356.077820,281.890930 352.492004,286.917053 
	C347.464539,293.963776 342.176941,300.826355 336.938965,307.720856 
	C333.260284,312.562897 330.409180,318.575073 322.024139,317.239929 
	C325.133392,326.957642 325.886993,335.889648 325.939148,344.831268 
	C326.094666,371.477966 326.163116,398.128082 325.857513,424.772186 
	C325.792603,430.432831 327.016205,434.780731 331.552734,438.175537 
	C334.272339,440.210724 335.844666,443.934601 339.924103,443.942017 
	C356.245422,443.971649 372.566833,443.965393 388.888214,443.978729 
	C391.193390,443.980591 392.977386,443.221039 392.723389,440.576721 
	C392.143951,434.544830 395.311584,430.372253 398.819977,425.900970 
	C407.434601,414.922241 408.822144,402.525146 404.734680,388.176849 
	C394.526459,400.072357 382.524261,404.995758 368.082031,401.337006 
	C353.374542,397.611053 344.943451,387.696533 342.025146,371.983978 
M388.171814,271.098083 
	C396.519958,272.541443 404.838745,274.201141 413.228088,275.341339 
	C417.757355,275.956909 422.839600,280.277283 426.295776,277.581848 
	C429.659607,274.958466 430.713379,269.247955 432.531891,264.791107 
	C438.545410,250.053238 436.146271,236.739395 425.259430,225.126511 
	C418.262939,217.663391 413.296692,209.139435 411.076782,199.153351 
	C410.148071,194.975571 409.791840,190.670517 409.161224,186.326004 
	C405.997833,186.070999 403.449097,188.218506 400.468506,188.346024 
	C395.622711,188.553284 393.812286,191.159714 393.407532,195.875076 
	C391.799561,214.607620 383.577301,230.423813 368.721771,241.484131 
	C360.824249,247.364014 359.354004,253.682327 360.006622,262.179260 
	C360.240082,265.218323 361.170319,266.689484 364.205963,267.143097 
	C371.926788,268.296875 379.620087,269.634613 388.171814,271.098083 
M295.692169,229.800690 
	C307.111053,237.882568 319.699188,240.531021 333.559235,238.733185 
	C354.321106,236.040115 374.320190,215.213547 375.666321,194.461456 
	C375.886932,191.060699 375.212616,189.227081 371.171204,189.243164 
	C340.508759,189.365158 309.845551,189.349884 279.182861,189.263931 
	C275.649261,189.254028 274.582031,190.320007 274.976471,193.947922 
	C276.582489,208.720016 283.492432,220.356232 295.692169,229.800690 
M296.158875,108.546799 
	C291.243896,116.385460 285.285980,123.272446 277.598846,128.515182 
	C275.323273,130.067154 274.280029,131.937698 274.309875,134.747055 
	C274.421265,145.233780 274.451630,155.723587 274.310242,166.209503 
	C274.264343,169.614304 275.411926,171.051666 278.908478,170.958755 
	C284.730591,170.804062 290.576324,170.678009 296.381927,171.033127 
	C300.990997,171.315063 303.687286,169.808212 305.624939,165.457581 
	C309.142365,157.559921 313.149139,149.870499 317.182617,142.215866 
	C319.763336,137.318268 324.434570,135.776001 328.949951,137.874786 
	C333.618317,140.044678 335.444061,144.985306 333.244659,150.056976 
	C331.790894,153.409439 329.928864,156.584290 328.460022,159.930984 
	C326.966400,163.334076 324.382294,166.335571 324.194916,170.323776 
	C324.891266,170.563370 325.354065,170.861115 325.817444,170.861984 
	C341.132111,170.890839 356.446899,170.861191 371.761383,170.921219 
	C374.823914,170.933212 375.806030,169.489716 375.779388,166.615723 
	C375.702209,158.292877 375.617798,149.964401 375.850800,141.646957 
	C375.954773,137.935745 374.711731,136.546783 370.971405,135.850754 
	C345.296661,131.072922 323.531403,118.993919 305.543213,100.068512 
	C304.570770,99.045387 303.780701,97.542702 301.709778,97.873650 
	C300.010345,101.157455 298.263794,104.532265 296.158875,108.546799 
M286.160858,266.666504 
	C289.652496,266.818756 290.853668,265.017975 290.683289,261.704681 
	C290.520996,258.548309 290.515778,255.368469 290.700958,252.214203 
	C290.866913,249.388077 289.734589,247.673141 287.410950,246.077759 
	C268.665527,233.207458 258.412567,215.373520 256.669220,192.686005 
	C256.546509,191.088974 256.337738,189.776962 254.422653,189.338974 
	C249.936127,188.312836 245.477188,187.166107 240.751862,186.005508 
	C240.586731,187.162628 240.357391,188.113785 240.328476,189.071030 
	C239.912552,202.837738 234.727097,214.561218 225.349762,224.562912 
	C213.768082,236.915756 211.279709,250.792557 218.173035,266.426849 
	C219.719696,269.934692 221.154251,270.746399 224.872070,269.415192 
	C235.314377,265.676300 246.095078,263.958771 257.235535,265.565125 
	C266.548096,266.907928 275.824860,269.395020 286.160858,266.666504 
M435.402374,367.651276 
	C444.053253,367.653534 444.076141,367.653473 444.054932,358.966705 
	C444.032959,349.977661 444.260437,340.974976 443.848633,332.002625 
	C442.955963,312.554291 429.322784,296.979675 410.258087,293.273254 
	C403.576080,291.974152 396.834045,290.982880 390.154968,289.670074 
	C386.563751,288.964203 385.296448,290.280731 385.321808,293.806671 
	C385.410339,306.125793 385.406769,318.446350 385.314941,330.765442 
	C385.295929,333.314240 386.233795,334.682159 388.602448,335.612915 
	C400.511810,340.292725 407.788879,348.946533 410.392975,361.501740 
	C411.240112,365.586090 413.335724,367.922546 417.947845,367.707306 
	C423.429779,367.451447 428.932922,367.649323 435.402374,367.651276 
M171.754593,493.619934 
	C173.202454,493.982971 174.635422,494.427277 176.100601,494.695923 
	C185.936111,496.499329 193.793259,491.585144 196.222214,482.150024 
	C198.297836,474.087463 193.269562,465.803253 184.456390,462.851135 
	C181.779160,461.954346 179.005341,461.329407 176.366440,460.338440 
	C172.007202,458.701385 169.253769,455.431030 170.048492,450.780273 
	C170.810089,446.323456 170.304382,442.724731 166.348221,440.402100 
	C162.164444,437.945801 158.151062,438.975891 154.214157,441.598755 
	C145.050323,447.703918 139.926422,456.634399 135.922043,466.522400 
	C131.925308,476.391571 134.825089,482.938660 145.099396,486.022003 
	C153.689728,488.599976 162.345276,490.960602 171.754593,493.619934 
M307.664062,362.367798 
	C307.664856,360.701538 307.369629,358.971069 307.714783,357.379486 
	C309.858337,347.494263 304.025879,341.541840 297.403809,335.901367 
	C296.042114,334.741486 294.556610,334.306793 292.818817,334.320923 
	C287.986938,334.360199 283.153687,334.402344 278.322845,334.325317 
	C275.671478,334.283051 274.302155,335.200867 274.329041,338.071686 
	C274.417969,347.568420 274.067230,357.080597 274.491516,366.559723 
	C274.924530,376.233398 281.781433,382.521637 290.707214,382.916260 
	C299.705231,383.314056 308.923065,375.354523 307.664062,362.367798 
M331.748718,284.276184 
	C333.260071,282.296417 334.536011,280.066803 336.324707,278.381409 
	C343.032654,272.060852 342.223877,264.303253 341.185883,255.914398 
	C330.255127,257.886627 319.606384,257.819489 308.605347,255.788452 
	C308.708649,261.458466 306.706940,266.927032 309.279694,271.172974 
	C313.793030,278.621552 319.519440,285.335114 324.885071,292.554779 
	C327.983337,290.145691 329.368164,287.251526 331.748718,284.276184 
M371.847992,383.723297 
	C379.681915,385.722168 387.328033,382.539246 390.957520,375.768372 
	C394.384125,369.376129 393.037445,360.791962 387.854309,355.986908 
	C382.050537,350.606506 373.720581,349.847900 367.167053,354.307159 
	C361.695953,358.029877 359.639771,363.436707 360.285034,369.895935 
	C360.966431,376.716217 364.817108,381.115387 371.847992,383.723297 
M245.310089,166.190781 
	C247.102173,167.366837 248.786911,168.771530 250.707748,169.673355 
	C255.313751,171.835831 256.607391,170.962906 256.639709,165.843628 
	C256.687836,158.216690 256.692474,150.589020 256.642731,142.962128 
	C256.611877,138.227066 255.467941,137.559784 250.878754,139.321335 
	C241.457779,142.937515 236.185089,155.809448 245.310089,166.190781 
M409.335510,149.529922 
	C407.682281,144.675842 404.420044,141.315979 399.729340,139.353790 
	C395.439240,137.559158 394.291382,138.231110 394.240631,142.755920 
	C394.153076,150.562607 394.155334,158.371597 394.235870,166.178421 
	C394.284119,170.859039 395.704773,171.655579 400.111389,169.737381 
	C407.432098,166.550705 410.406433,160.428925 409.335510,149.529922 
M147.785416,335.138580 
	C145.417358,336.431183 143.382263,337.930847 143.856003,341.239563 
	C147.259140,342.071808 150.252899,342.036316 152.558105,339.193481 
	C153.411407,338.141205 154.122391,336.781219 153.339676,335.537994 
	C152.102814,333.573486 150.181107,334.374023 147.785416,335.138580 
z"/>
<path fill="#000000" opacity="1.000000" stroke="none" 
	d="
M58.046890,272.832733 
	C52.412071,263.828369 50.170380,254.576385 52.720589,244.393478 
	C58.389996,221.755722 85.943306,213.410995 103.035027,229.316025 
	C109.315750,235.160675 108.198723,233.988434 113.100807,229.506546 
	C124.736816,218.867981 141.981888,218.326416 153.719101,228.189713 
	C165.889343,238.416916 168.349518,257.143433 159.378860,271.365082 
	C156.676346,275.649536 153.226624,279.244141 149.029922,282.067261 
	C137.836899,289.596863 126.555893,296.996765 115.414764,304.601929 
	C110.549995,307.922729 106.141464,308.057526 101.176125,304.625916 
	C90.354485,297.146942 79.300583,290.004517 68.358284,282.699524 
	C64.451103,280.091156 60.976036,277.005310 58.046890,272.832733 
M115.256783,282.744293 
	C123.009865,277.563629 130.732513,272.336578 138.528366,267.221100 
	C142.668564,264.504395 145.076324,260.666962 146.276108,255.997238 
	C147.695694,250.472046 145.446442,244.315338 141.054092,241.397537 
	C136.250626,238.206680 130.777695,238.460373 125.863937,242.597626 
	C122.308472,245.591232 119.134026,249.039078 115.807793,252.302826 
	C110.497902,257.512939 106.096375,257.566589 100.685974,252.379303 
	C97.441086,249.268219 94.337746,246.007874 91.055908,242.937393 
	C87.033997,239.174500 82.308441,238.030106 77.260101,240.429977 
	C72.301353,242.787247 70.002411,246.930176 70.059143,252.529724 
	C70.121460,258.681030 72.475494,263.492462 77.575699,266.911285 
	C85.734177,272.380127 94.149490,277.500854 102.008095,283.368896 
	C106.702972,286.874573 110.503090,287.181824 115.256783,282.744293 
z"/>
<path fill="#000000" opacity="1.000000" stroke="none" 
	d="
M215.055695,329.380432 
	C217.787430,325.708282 221.019165,323.996552 225.230209,325.193817 
	C230.106384,326.580170 232.765213,331.400940 231.427979,336.106995 
	C230.010681,341.094818 224.957886,343.848602 220.063919,342.300415 
	C214.953766,340.683838 212.945450,335.823151 215.055695,329.380432 
z"/>
<path fill="#000000" opacity="1.000000" stroke="none" 
	d="
M368.095947,143.543365 
	C368.371887,150.951096 365.472412,155.425751 359.791077,156.907288 
	C355.223053,158.098511 349.869720,155.648712 347.541107,151.301437 
	C344.802582,146.188904 346.424896,139.740967 351.188690,136.804031 
	C356.750000,133.375412 362.985474,134.655167 366.485229,140.002991 
	C367.116302,140.967300 367.501709,142.092377 368.095947,143.543365 
z"/>
<path fill="#000000" opacity="1.000000" stroke="none" 
	d="
M282.880005,142.193451 
	C286.270325,136.209717 290.487213,134.009079 295.583069,135.250473 
	C300.896698,136.544907 304.283508,140.702591 304.304962,145.957504 
	C304.325500,150.992630 301.146973,155.241882 296.230011,156.752625 
	C287.947021,159.297531 280.968323,151.941269 282.880005,142.193451 
z"/>
<path fill="#000000" opacity="1.000000" stroke="none" 
	d="
M384.490417,363.997284 
	C386.163605,368.594147 385.372711,372.265015 381.771606,375.048981 
	C378.703949,377.420593 375.304016,377.622131 371.983337,375.630920 
	C368.681091,373.650757 367.294556,370.576813 367.700043,366.744415 
	C368.119019,362.784698 370.519379,360.409790 374.161987,359.373291 
	C378.576843,358.117035 381.929352,359.826569 384.490417,363.997284 
z"/>
</svg>